<svg width="24" height="24" viewBox="0 0 24 24" fill="none" xmlns="http://www.w3.org/2000/svg">
<path d="M21 3H14C13.229 3 12.532 3.301 12 3.78C11.468 3.301 10.771 3 10 3H3C2.447 3 2 3.448 2 4V19C2 19.553 2.447 20 3 20H8.758C9.284 20 9.8 20.214 10.172 20.586L11.293 21.707C11.302 21.716 11.314 21.719 11.323 21.728C11.409 21.807 11.505 21.877 11.617 21.924C11.618 21.924 11.618 21.924 11.619 21.924C11.74 21.974 11.869 22 12 22C12.131 22 12.26 21.974 12.381 21.924C12.382 21.924 12.382 21.924 12.383 21.924C12.495 21.877 12.591 21.807 12.677 21.728C12.686 21.719 12.698 21.716 12.707 21.707L13.828 20.586C14.2 20.214 14.716 20 15.242 20H21C21.553 20 22 19.553 22 19V4C22 3.448 21.553 3 21 3ZM8.758 18H4V5H10C10.552 5 11 5.449 11 6V18.689C10.342 18.246 9.557 18 8.758 18ZM20 18H15.242C14.443 18 13.658 18.246 13 18.689V6C13 5.449 13.448 5 14 5H20V18Z" fill="#191516"/>
</svg>
