<svg width="24" height="24" viewBox="0 0 24 24" fill="none" xmlns="http://www.w3.org/2000/svg">
<path d="M2 12L7 16V13H16V11H7V8L2 12Z" fill="#191516"/>
<path d="M13.001 2.99899C10.596 2.99899 8.33602 3.93599 6.63702 5.63599L8.05102 7.04999C9.37302 5.72799 11.131 4.99899 13.001 4.99899C14.871 4.99899 16.629 5.72799 17.951 7.04999C19.273 8.37199 20.002 10.13 20.002 12C20.002 13.87 19.273 15.628 17.951 16.95C16.629 18.272 14.871 19.001 13.001 19.001C11.131 19.001 9.37302 18.272 8.05102 16.95L6.63702 18.364C8.33602 20.064 10.596 21.001 13.001 21.001C15.406 21.001 17.666 20.064 19.365 18.364C21.065 16.665 22.002 14.405 22.002 12C22.002 9.59499 21.065 7.33499 19.365 5.63599C17.666 3.93599 15.406 2.99899 13.001 2.99899Z" fill="#191516"/>
</svg>
