<svg width="24" height="24" viewBox="0 0 24 24" fill="none" xmlns="http://www.w3.org/2000/svg">
<path d="M10.3625 15.2324L9.9713 15.815H11.0397V17.725H6.38808L8.77685 14.1676L10.3625 15.2324Z" fill="#191516"/>
<path d="M14.0283 15.815L13.6371 15.2324L15.2228 14.1676L17.6116 17.725H12.96V15.815H14.0283Z" fill="#191516"/>
<path d="M12.0001 9.31264L9.82433 12.5921L11.4159 13.648L12.0001 12.7675L12.5843 13.648L14.1759 12.5921L12.0001 9.31264Z" fill="#191516"/>
<path fill-rule="evenodd" clip-rule="evenodd" d="M10.6297 0.545013H13.3764C14.0261 0.549585 14.6552 0.774141 15.161 1.18203C15.6629 1.58678 16.014 2.14839 16.1582 2.77651L16.5622 4.36496H21.5502V6.27496H20.5954V19.64C20.5954 20.6518 20.1934 21.6221 19.478 22.3376C18.7625 23.053 17.7922 23.455 16.7804 23.455H7.23035C6.21855 23.455 5.24819 23.053 4.53274 22.3376C3.81729 21.6221 3.41535 20.6518 3.41535 19.64V6.27496H2.4502V4.36496H7.43717L7.84113 2.77651C7.98536 2.14839 8.33652 1.58678 8.83841 1.18203C9.34419 0.774141 9.97322 0.549609 10.623 0.545037L10.6297 0.545013ZM5.32535 6.27496V19.64C5.32535 20.1452 5.52606 20.6297 5.88331 20.987C6.24057 21.3443 6.72511 21.545 7.23035 21.545H16.7804C17.2856 21.545 17.7701 21.3443 18.1274 20.987C18.4846 20.6297 18.6854 20.1452 18.6854 19.64V6.27496H5.32535ZM14.5914 4.36496H9.40797L9.69858 3.22219L9.70156 3.2089C9.74927 2.99608 9.86765 2.80571 10.0374 2.6688C10.2065 2.53247 10.4165 2.45717 10.6336 2.45501H13.3658C13.5829 2.45717 13.7929 2.53247 13.962 2.6688C14.1317 2.80571 14.2501 2.99608 14.2978 3.2089L14.3008 3.22219L14.5914 4.36496Z" fill="#191516"/>
</svg>
