<svg width="20" height="20" viewBox="0 0 20 20" fill="none" xmlns="http://www.w3.org/2000/svg">
<path d="M0 10H2C2 8.914 2.211 7.864 2.627 6.878C3.028 5.924 3.605 5.069 4.337 4.337C5.072 3.602 5.928 3.026 6.879 2.627C8.815 1.811 11.06 1.8 13.009 2.586C13.055 3.931 14.144 5 15.5 5C16.886 5 18 3.886 18 2.5C18 1.114 16.886 0 15.5 0C14.811 0 14.188 0.276 13.737 0.725C11.306 -0.248 8.514 -0.233 6.102 0.784C4.913 1.284 3.842 2.004 2.922 2.923C2.005 3.839 1.285 4.909 0.782 6.102C0.264 7.334 0 8.646 0 10ZM17.373 13.122C16.972 14.074 16.396 14.93 15.663 15.663C14.93 16.396 14.074 16.972 13.121 17.373C11.185 18.189 8.94 18.2 6.991 17.414C6.945 16.069 5.856 15 4.5 15C3.114 15 2 16.114 2 17.5C2 18.886 3.114 20 4.5 20C5.189 20 5.812 19.724 6.263 19.275C7.449 19.752 8.704 20 10 20C11.354 20 12.665 19.736 13.897 19.217C15.089 18.714 16.16 17.994 17.077 17.077C17.994 16.16 18.714 15.09 19.217 13.898C19.736 12.665 20 11.354 20 10H18C18 11.085 17.789 12.135 17.373 13.122Z" fill="#191516"/>
</svg>
