<svg width="20" height="20" viewBox="0 0 20 20" fill="none" xmlns="http://www.w3.org/2000/svg">
<path d="M9.99996 1.66667C5.40496 1.66667 1.66663 5.40501 1.66663 10C1.66663 14.595 5.40496 18.3333 9.99996 18.3333C14.595 18.3333 18.3333 14.595 18.3333 10C18.3333 5.40501 14.595 1.66667 9.99996 1.66667ZM9.99996 16.6667C6.32413 16.6667 3.33329 13.6758 3.33329 10C3.33329 6.32417 6.32413 3.33334 9.99996 3.33334C13.6758 3.33334 16.6666 6.32417 16.6666 10C16.6666 13.6758 13.6758 16.6667 9.99996 16.6667Z" fill="#191516"/>
<path d="M10.8333 5.83333H9.16663V10.8333H14.1666V9.16666H10.8333V5.83333Z" fill="#191516"/>
</svg>
