<svg width="16" height="30" viewBox="0 0 16 30" fill="none" xmlns="http://www.w3.org/2000/svg">
<path d="M3.41496 9.34921L7.24074 4.8858C7.60016 4.46647 8.23146 4.41791 8.65079 4.77733C8.68967 4.81066 8.72593 4.84692 8.75925 4.8858L12.585 9.34921C12.9445 9.76853 12.8959 10.3998 12.4766 10.7593C12.2953 10.9146 12.0645 11 11.8258 11L4.17422 11C3.62193 11 3.17422 10.5523 3.17422 10C3.17422 9.76129 3.25961 9.53045 3.41496 9.34921Z" fill="#191516"/>
<path d="M3.41496 20.6508L7.24074 25.1142C7.60016 25.5335 8.23146 25.5821 8.65079 25.2227C8.68967 25.1893 8.72593 25.1531 8.75925 25.1142L12.585 20.6508C12.9445 20.2315 12.8959 19.6002 12.4766 19.2407C12.2953 19.0854 12.0645 19 11.8258 19H4.17422C3.62193 19 3.17422 19.4477 3.17422 20C3.17422 20.2387 3.25961 20.4695 3.41496 20.6508Z" fill="#191516"/>
</svg>
