<svg width="57" height="56" viewBox="0 0 57 56" fill="none" xmlns="http://www.w3.org/2000/svg">
<path d="M25.8599 0.0985649C26.0493 0.144056 26.2387 0.121311 26.4281 0.0758191C27.5416 -0.0227457 28.6476 -0.0303276 29.7612 0.083401C29.943 0.136474 30.1172 0.15922 30.3066 0.113729C30.6702 0.265367 31.0717 0.0758191 31.4277 0.235039C31.5111 0.242621 31.602 0.250203 31.6853 0.257785C31.9353 0.401841 32.2383 0.242621 32.4883 0.379096C32.5716 0.386678 32.6549 0.401841 32.7383 0.409423C32.9428 0.530734 33.2003 0.401841 33.3973 0.538316C33.4352 0.576225 33.473 0.583807 33.5185 0.55348C33.7079 0.689954 33.9654 0.538316 34.1548 0.689954C34.1851 0.720282 34.2154 0.727864 34.2609 0.705118C34.4124 0.803683 34.6093 0.720282 34.7608 0.826428C34.7911 0.864338 34.829 0.87192 34.8745 0.849174C35.0184 0.955321 35.2229 0.864338 35.3669 0.985649C35.3972 1.01598 35.4275 1.02356 35.4653 1.00839C35.6168 1.10696 35.8289 1.00839 35.9653 1.15245H35.9577C36.0865 1.28134 36.291 1.16761 36.4198 1.29651C36.4425 1.31925 36.4728 1.32683 36.5031 1.31925C36.6243 1.36474 36.7607 1.36474 36.8743 1.44815C36.8971 1.47089 36.9274 1.47847 36.9577 1.47089C37.0789 1.5088 37.2152 1.51638 37.3288 1.59978C37.4425 1.74384 37.6622 1.61495 37.7758 1.759H37.7682C37.8894 1.89548 38.1167 1.75142 38.2227 1.93339L38.2151 1.92581C38.3212 1.98646 38.45 1.9713 38.5409 2.06228C38.6545 2.20634 38.8893 2.0547 38.9802 2.24425L38.9727 2.23666C39.0787 2.28974 39.2151 2.27457 39.2984 2.38072L39.2908 2.37314C39.3817 2.44896 39.5257 2.42621 39.609 2.51719C39.6923 2.6006 39.8287 2.57785 39.9196 2.66125C40.0181 2.82047 40.268 2.64609 40.3438 2.85838L40.3362 2.8508C40.4498 2.88871 40.5938 2.85838 40.6468 3.01002L40.6392 3.00244C40.8286 3.04035 40.9725 3.17682 41.1316 3.2678C41.2074 3.36637 41.3513 3.32846 41.427 3.42702H41.4195C41.5028 3.51043 41.6543 3.4801 41.7225 3.59383L41.7149 3.58624C41.8058 3.66206 41.9573 3.62415 42.0179 3.76063L42.0103 3.75305C42.1921 3.8137 42.3436 3.91985 42.4876 4.04116L42.48 4.03358C42.5633 4.11698 42.7224 4.07907 42.7754 4.21554L42.7603 4.20796C42.8436 4.22312 42.8891 4.28378 42.9421 4.32927C43.0178 4.42784 43.1693 4.38993 43.2299 4.51124L43.2224 4.50366C43.389 4.58706 43.5633 4.67046 43.6845 4.81451L43.6769 4.80693C43.8435 4.89033 44.0178 4.96615 44.1314 5.12537L44.1238 5.11779C44.2072 5.13295 44.2526 5.19361 44.3056 5.25427C44.4496 5.36799 44.6314 5.42865 44.7526 5.58029L44.745 5.57271C44.8207 5.59545 44.8662 5.65611 44.9192 5.70918C45.0556 5.83049 45.2525 5.88356 45.3586 6.04278L45.351 6.0352C45.4343 6.05795 45.4798 6.11102 45.5252 6.17926L45.5177 6.17168C45.5858 6.20959 45.6313 6.26266 45.6843 6.31573C45.8131 6.44463 46.0176 6.48253 46.1085 6.6645L46.101 6.65692C46.1919 6.6645 46.2449 6.72516 46.2752 6.80856L46.2676 6.80097C46.3509 6.82372 46.3964 6.88438 46.4343 6.95261L46.4267 6.94503C46.4949 6.97536 46.5479 7.03601 46.5934 7.09667L46.5858 7.08909C46.6464 7.13458 46.6918 7.18765 46.7449 7.23314C47.51 7.88519 48.222 8.58272 48.8659 9.36366C48.9189 9.41673 48.9795 9.46223 49.0174 9.53046L49.0098 9.52288C49.078 9.56837 49.1311 9.61386 49.1614 9.68968L49.1538 9.6821C49.2295 9.71243 49.2901 9.7655 49.3053 9.85649L49.2977 9.8489C49.4947 10.0157 49.6386 10.228 49.7825 10.4403V10.4327C49.8431 10.4782 49.8962 10.5313 49.9265 10.6071L49.9189 10.5995C49.9946 10.6374 50.0552 10.6829 50.0628 10.7739L50.0552 10.7663C50.237 10.8573 50.2825 11.0544 50.3885 11.2061L50.381 11.1985C50.4491 11.244 50.5097 11.2895 50.5173 11.3805L50.5022 11.3729C50.6385 11.4108 50.6006 11.5776 50.6916 11.6458C50.737 11.7065 50.7976 11.7444 50.8279 11.8202L50.8203 11.8126C50.9643 11.9339 51.04 12.1159 51.1385 12.2675L51.1309 12.26C51.1991 12.3054 51.2597 12.3509 51.2597 12.4419L51.2521 12.4343C51.4036 12.4722 51.3582 12.639 51.4415 12.7224L51.4339 12.7149C51.5627 12.8513 51.6536 13.0181 51.7369 13.1849L51.7294 13.1774C51.843 13.238 51.8127 13.3897 51.9036 13.4655C51.9566 13.5185 52.0172 13.5716 52.0248 13.655L52.0172 13.6474C52.1611 13.7005 52.1233 13.8522 52.199 13.9431L52.1914 13.9356C52.3051 14.0038 52.2748 14.1554 52.3581 14.2312C52.4642 14.3829 52.5854 14.5269 52.6384 14.7165L52.6308 14.7089C52.7747 14.762 52.7444 14.9136 52.7975 15.0198L52.7899 15.0122C52.9262 15.0728 52.8959 15.2245 52.9565 15.323L52.949 15.3155C53.0777 15.3837 53.055 15.5278 53.1081 15.6263L53.1005 15.6187C53.2293 15.687 53.2065 15.831 53.2596 15.9372L53.252 15.9296C53.3808 15.9978 53.358 16.1419 53.4035 16.248L53.3959 16.2405C53.6004 16.3239 53.4338 16.5665 53.5853 16.6726C53.6686 16.7636 53.6535 16.9001 53.7292 16.9911L53.7216 16.9835C53.8277 17.0669 53.8125 17.2034 53.8656 17.3095L53.858 17.2943C54.0474 17.3929 53.8959 17.6279 54.0398 17.7417V17.7341C54.1383 17.8251 54.1231 17.954 54.1762 18.0601L54.1686 18.045C54.358 18.1435 54.2216 18.371 54.3428 18.4999L54.3352 18.4923C54.5019 18.606 54.3731 18.8259 54.5019 18.9548L54.4943 18.9472C54.6458 19.0685 54.5246 19.2808 54.6458 19.4097L54.6382 19.4021C54.7897 19.5234 54.6761 19.7357 54.7897 19.8722L54.7822 19.8646C54.9413 20.0011 54.8428 20.2134 54.9337 20.3726C54.9261 20.4029 54.9337 20.4333 54.9564 20.456C55.0852 20.6001 54.9943 20.8048 55.0928 20.9564C55.07 20.9943 55.0776 21.0322 55.1155 21.0626C55.2291 21.2066 55.1458 21.4113 55.2443 21.563C55.2215 21.6009 55.2291 21.6388 55.267 21.6691C55.4185 21.8511 55.2518 22.1013 55.4033 22.2832V22.2757C55.5927 22.5107 55.3882 22.8216 55.5549 23.0566C55.5246 23.1021 55.5321 23.14 55.57 23.1779C55.7291 23.4205 55.5548 23.7238 55.6988 23.974C55.6761 24.0195 55.6761 24.0574 55.7139 24.0877C55.8957 24.4365 55.6836 24.8383 55.8503 25.1947C55.8048 25.3387 55.8276 25.4752 55.8806 25.6117C56.0472 26.332 55.8351 27.075 56.0018 27.7953C55.9412 27.9545 55.9412 28.1213 56.0018 28.2881C55.8351 29.0084 56.0548 29.7514 55.8806 30.4717C55.8276 30.6006 55.8124 30.7371 55.8503 30.8735C55.7064 31.1844 55.8806 31.5332 55.7215 31.8364C55.7139 31.9198 55.7064 32.0033 55.6988 32.0867C55.5548 32.3444 55.7291 32.6477 55.5624 32.8979C55.5321 32.9282 55.5245 32.9662 55.5473 33.0041C55.4185 33.2088 55.5549 33.459 55.4185 33.6561C55.3806 33.6864 55.373 33.7243 55.3958 33.7698C55.2594 33.967 55.4185 34.2248 55.2518 34.4143C55.2367 34.437 55.2291 34.4674 55.2367 34.4977C55.1534 34.6645 55.2291 34.8692 55.1003 35.0209C55.0852 35.0436 55.0776 35.0739 55.0852 35.1043C55.0019 35.2635 55.0852 35.4758 54.9413 35.6274L54.9488 35.6198C54.8276 35.7563 54.9413 35.961 54.8049 36.0899C54.7822 36.1126 54.7746 36.143 54.7822 36.1809C54.7367 36.3022 54.7367 36.4387 54.661 36.5448C54.6231 36.5751 54.6155 36.6055 54.6382 36.651C54.5322 36.795 54.6534 37.0149 54.4716 37.1362L54.4792 37.121C54.4186 37.2272 54.4337 37.3561 54.358 37.4471C54.3277 37.4698 54.3201 37.5001 54.3277 37.538C54.2822 37.6594 54.2822 37.7958 54.1913 37.902C54.0474 38.0233 54.1913 38.2432 54.0171 38.3493L54.0247 38.3417C53.9641 38.4403 53.9792 38.5768 53.8883 38.6678C53.7444 38.7815 53.8959 39.0165 53.7065 39.1075L53.7141 39.0999C53.661 39.2061 53.6762 39.3425 53.5701 39.4259L53.5777 39.4184C53.5095 39.5169 53.5247 39.6534 53.4338 39.7368V39.7292C53.3505 39.8202 53.3732 39.9567 53.2899 40.0401C53.199 40.1235 53.2217 40.26 53.1384 40.3434C53.0399 40.4192 53.0702 40.5632 52.9868 40.6466C52.8884 40.7224 52.9187 40.8665 52.8353 40.9499C52.7369 41.0257 52.7672 41.1698 52.6763 41.2456C52.5929 41.329 52.6157 41.4731 52.5172 41.5489L52.5248 41.5413C52.449 41.6323 52.4793 41.7839 52.3581 41.8446L52.3657 41.837C52.2975 41.9356 52.3354 42.0872 52.1914 42.1403L52.199 42.1327C52.199 42.2237 52.1308 42.2692 52.0778 42.3222C51.9869 42.3981 52.0172 42.5497 51.9036 42.6179L51.9112 42.6103C51.843 42.7013 51.8809 42.8605 51.7294 42.906L51.7369 42.8985C51.7369 42.9894 51.6688 43.0349 51.6082 43.088V43.0804C51.5248 43.1638 51.5627 43.323 51.4263 43.3685L51.4339 43.3534C51.4263 43.4368 51.3582 43.4898 51.3051 43.5353C51.2142 43.6112 51.2597 43.778 51.1158 43.8235L51.1233 43.8083C51.1158 43.8917 51.0476 43.9448 50.987 43.9903V43.9827C50.8809 44.1343 50.8128 44.3087 50.6688 44.4376L50.6764 44.43C50.5779 44.5892 50.5249 44.7788 50.3507 44.8773L50.3582 44.8698C50.3507 44.9607 50.2901 45.0062 50.2143 45.0517L50.2219 45.0441C50.1916 45.1124 50.131 45.1579 50.0855 45.2185C49.9568 45.355 49.9113 45.5521 49.7522 45.6507L49.7598 45.6431C49.7446 45.7265 49.684 45.7796 49.6159 45.8175L49.6234 45.8099C49.5931 45.8782 49.5325 45.9236 49.4795 45.9767C49.328 46.1814 49.1992 46.4013 48.9871 46.5605L48.9947 46.5529C48.9871 46.6439 48.9265 46.697 48.8432 46.7197L48.8508 46.7122C48.828 46.7956 48.775 46.8486 48.6993 46.879L48.7068 46.8714C48.6765 46.9472 48.6235 47.0003 48.5553 47.0382L48.5629 47.0306C48.525 47.0988 48.472 47.1519 48.4114 47.1898L48.419 47.1822C48.3811 47.2429 48.3281 47.296 48.2675 47.3415L48.2751 47.3339C48.2296 47.3945 48.1766 47.44 48.1235 47.4931C48.0705 47.5462 48.0251 47.5992 47.972 47.6447C47.919 47.6978 47.8736 47.7509 47.8205 47.7964C47.7675 47.8494 47.7221 47.9025 47.669 47.948C47.616 48.0011 47.5706 48.0542 47.5175 48.0997C47.4645 48.1527 47.4191 48.2058 47.3584 48.2513C47.313 48.3044 47.26 48.365 47.1994 48.4029L47.2069 48.3953C47.1615 48.456 47.116 48.5167 47.0479 48.547L47.0554 48.5394C47.0176 48.6076 46.9645 48.6607 46.8888 48.691L46.8964 48.6835C46.8661 48.7593 46.813 48.8123 46.7297 48.8351L46.7373 48.8275C46.707 48.9109 46.6615 48.9716 46.5706 48.9792L46.5782 48.9716C46.4191 49.1763 46.1994 49.3052 46.0025 49.4644C45.9495 49.5175 45.904 49.5705 45.8358 49.6084L45.8434 49.6009C45.798 49.6691 45.7525 49.7222 45.6692 49.7449L45.6767 49.7373C45.6464 49.8207 45.601 49.8814 45.5025 49.8814L45.5404 49.8966L45.5101 49.8662C45.4268 50.0558 45.2222 50.0937 45.0783 50.2074L45.0859 50.1998C45.0404 50.2681 44.995 50.3287 44.9117 50.3439L44.9192 50.3363C44.8132 50.5031 44.6238 50.5638 44.4723 50.6699L44.4799 50.6623C44.4344 50.7306 44.389 50.7912 44.2981 50.7988L44.3056 50.7836C44.2678 50.9201 44.1011 50.8822 44.0253 50.9732C43.9723 51.0263 43.9269 51.0869 43.8435 51.1021L43.8511 51.0945C43.7299 51.2461 43.5557 51.3295 43.389 51.4129L43.3966 51.4054C43.336 51.5267 43.1845 51.4888 43.1087 51.5873C43.0557 51.6328 43.0027 51.7011 42.9269 51.7162L42.9421 51.7086C42.8891 51.8375 42.73 51.8072 42.6467 51.8906H42.6542C42.5103 52.0119 42.3512 52.1105 42.177 52.1863L42.1846 52.1787C42.124 52.3076 41.9725 52.2697 41.8816 52.3531L41.8891 52.3455C41.821 52.4517 41.6695 52.4138 41.5937 52.5123C41.5331 52.5578 41.4876 52.626 41.4043 52.626L41.4119 52.6185C41.3664 52.7701 41.2149 52.7398 41.1089 52.7853L41.1165 52.7777C41.0634 52.9217 40.9119 52.8838 40.8059 52.9445L40.8134 52.9369C40.7453 53.0658 40.6013 53.0431 40.5029 53.0961L40.5104 53.0885C40.4423 53.2174 40.2983 53.1947 40.1999 53.2478L40.2074 53.2402C40.1393 53.3691 39.9953 53.3463 39.8893 53.3918L39.8968 53.3842C39.8135 53.5814 39.5711 53.4221 39.4726 53.5738C39.3817 53.6572 39.2454 53.6344 39.162 53.7178H39.1696C39.0863 53.8164 38.9499 53.8013 38.8439 53.8619L38.8515 53.8543C38.753 54.0287 38.5182 53.8847 38.4121 54.0363C38.3212 54.1197 38.1848 54.1045 38.0864 54.1728L38.0939 54.1652C37.9879 54.3396 37.7606 54.2031 37.6394 54.332H37.647C37.5258 54.4836 37.3137 54.3471 37.1925 54.4912C37.0713 54.6277 36.8592 54.5064 36.738 54.6428C36.6092 54.7793 36.4047 54.658 36.2759 54.7945H36.2835C36.1547 54.931 35.9501 54.8248 35.8138 54.9385L35.8214 54.931C35.6623 55.1281 35.3896 54.931 35.2154 55.0978H35.2229C35.0714 55.2266 34.8669 55.1508 34.7002 55.2342H34.6548L34.6169 55.2494C34.4275 55.4162 34.17 55.2494 33.9806 55.3934L33.9124 55.3783L33.8594 55.4162C33.67 55.5527 33.42 55.4086 33.2231 55.5451L33.1549 55.5299L33.0943 55.5678C32.8519 55.7271 32.5564 55.5375 32.314 55.7043L32.2459 55.6816L32.1853 55.7195C31.8823 55.8863 31.5338 55.6967 31.2308 55.8484C31.1475 55.8559 31.0566 55.8635 30.9732 55.8711C30.4581 56.0455 29.9127 55.8332 29.3976 56C28.481 56 27.5568 56 26.6402 56C26.1251 55.8332 25.5797 56.0531 25.0645 55.8711C24.9812 55.8635 24.8979 55.8559 24.8146 55.8484C24.5116 55.6967 24.1555 55.8863 23.8525 55.7119L23.7995 55.6816L23.7389 55.6967C23.4965 55.5451 23.1859 55.7271 22.9435 55.5602L22.8905 55.5299L22.8299 55.5451C22.6329 55.4162 22.3753 55.5602 22.1784 55.4086L22.1254 55.3783L22.0648 55.3859C21.8678 55.2494 21.6027 55.4086 21.4209 55.2342L21.4284 55.2418C21.2542 55.0826 20.9891 55.2721 20.8148 55.0826L20.8224 55.0902C20.6861 54.9689 20.4891 55.075 20.3528 54.9537L20.3073 54.9234L20.2543 54.931C20.1028 54.8324 19.8907 54.9385 19.7543 54.7793L19.7619 54.7869C19.6255 54.6656 19.421 54.7869 19.2922 54.6353L19.2998 54.6428C19.171 54.5139 18.9589 54.6353 18.8377 54.4836L18.8453 54.4912C18.7165 54.3623 18.4968 54.4912 18.3908 54.3244L18.3983 54.332C18.2999 54.2637 18.1711 54.2865 18.0726 54.2031C18.0499 54.1728 18.0196 54.1652 17.9817 54.1728C17.8605 54.1273 17.7166 54.1348 17.6257 54.0287L17.6332 54.0363C17.512 53.8998 17.2772 54.0514 17.1863 53.8543L17.1939 53.8619C17.0803 53.8164 16.9439 53.8316 16.8681 53.7178L16.8757 53.7254C16.7772 53.6572 16.6409 53.6799 16.5576 53.5814H16.5651C16.4742 53.5056 16.3379 53.5207 16.2546 53.4373C16.1712 53.3463 16.0349 53.3691 15.9515 53.2933C15.8531 53.134 15.6031 53.3084 15.5273 53.0961L15.5349 53.1037C15.3455 53.0658 15.2016 52.9293 15.0425 52.8383C14.9668 52.7398 14.8228 52.7701 14.7471 52.6791C14.6638 52.5881 14.5198 52.6185 14.4441 52.5123L14.4516 52.5199C14.3607 52.4441 14.2092 52.4744 14.1486 52.3455L14.1562 52.3531C14.0577 52.2924 13.8987 52.3304 13.8608 52.1787L13.8684 52.1863C13.7775 52.1863 13.732 52.1256 13.679 52.065C13.6032 51.974 13.4441 52.0119 13.3835 51.8906L13.3911 51.8982C13.2169 51.8224 13.0578 51.7314 12.9214 51.5949L12.929 51.6025C12.8457 51.5267 12.679 51.5646 12.6412 51.4129L12.6487 51.4205C12.5578 51.4205 12.5124 51.3599 12.4669 51.2916L12.4745 51.2992C12.3154 51.2006 12.1412 51.1248 12.0124 50.9884L12.02 50.9959C11.8609 50.8974 11.6791 50.8367 11.5655 50.6699L11.5731 50.6775C11.4897 50.6623 11.4443 50.6017 11.3913 50.541L11.3988 50.5486C11.2549 50.4349 11.0655 50.3818 10.9519 50.215L10.9595 50.2226C10.8761 50.2074 10.8231 50.1468 10.7852 50.0785L10.7928 50.0861C10.5731 49.9572 10.3686 49.798 10.1944 49.6084L10.2019 49.616C10.1186 49.6009 10.0656 49.5402 10.0277 49.4644L10.0353 49.472C9.95953 49.4416 9.91408 49.381 9.86863 49.3279H9.87621C9.6035 49.146 9.36109 48.9337 9.14141 48.6835L9.14899 48.691C9.05051 48.6835 9.00506 48.6304 8.98233 48.5318L8.98991 48.5394C8.899 48.5242 8.84598 48.4712 8.82325 48.3878L8.83082 48.3953C8.7475 48.3726 8.69447 48.3195 8.66417 48.2361L8.67175 48.2437C8.58842 48.221 8.53539 48.1679 8.50509 48.0921L8.51267 48.0997C8.43691 48.0693 8.38389 48.0162 8.35359 47.9404L8.36116 47.948C8.28541 47.9177 8.23238 47.8646 8.20208 47.7888L8.20966 47.7964C8.1339 47.766 8.08088 47.713 8.05058 47.6372L8.05815 47.6447C7.9824 47.6144 7.92937 47.5613 7.89907 47.4779L7.90665 47.4855C7.82332 47.4552 7.77029 47.4021 7.74757 47.3187L7.75514 47.3263C7.67181 47.3036 7.61879 47.2505 7.59606 47.1671L7.60364 47.1747C7.52031 47.1519 7.45971 47.0988 7.45213 47.0079L7.45971 47.0154C7.2173 46.7956 7.00519 46.5529 6.81581 46.28C6.76279 46.2269 6.70218 46.1814 6.67188 46.1132L6.67946 46.1208C6.61128 46.0753 6.55826 46.0298 6.52796 45.9464L6.53553 45.954C6.4522 45.9236 6.3916 45.8781 6.38403 45.7796L6.3916 45.7872C6.20979 45.6962 6.17192 45.4915 6.05072 45.355V45.3626C5.99011 45.3171 5.93709 45.264 5.90679 45.1882L5.91436 45.1958C5.83861 45.1579 5.77801 45.1124 5.77043 45.0214L5.77801 45.029C5.6265 44.9986 5.67195 44.8243 5.58105 44.7636C5.5356 44.7105 5.46742 44.665 5.4447 44.5892L5.45227 44.5968C5.30077 44.4755 5.24017 44.2935 5.12654 44.1495V44.1571C5.06594 44.1116 5.00533 44.0585 4.99018 43.9751L4.99776 43.9903C4.8614 43.9448 4.89928 43.778 4.80838 43.7097C4.75535 43.6567 4.69475 43.6112 4.6796 43.5278L4.68717 43.5429C4.55839 43.4974 4.59627 43.3306 4.50537 43.2548C4.45234 43.2017 4.39174 43.1562 4.37659 43.0728L4.38416 43.088C4.24781 43.0349 4.28569 42.8833 4.20236 42.7923L4.20993 42.7999C4.08873 42.6558 3.98268 42.4966 3.9145 42.3222L3.92208 42.3298C3.7933 42.2692 3.83117 42.1175 3.74785 42.0265L3.75542 42.0341C3.64937 41.9659 3.68724 41.8142 3.58877 41.7384C3.54331 41.6778 3.47514 41.6323 3.47514 41.5489L3.48271 41.5565C3.33121 41.511 3.36908 41.3517 3.30848 41.2532L3.31606 41.2608C3.1797 41.2001 3.21 41.0485 3.1494 40.9499L3.15698 40.9575C3.0282 40.8968 3.0585 40.7452 2.99032 40.6466L2.9979 40.6542C2.87669 40.586 2.89942 40.4419 2.83882 40.3358L2.84639 40.3434C2.72519 40.2751 2.74792 40.1311 2.68731 40.0249L2.69489 40.0325C2.56611 39.9643 2.58883 39.8202 2.54338 39.7141L2.55096 39.7216C2.34643 39.6382 2.51308 39.3956 2.36158 39.2895C2.27825 39.1985 2.2934 39.062 2.21765 38.971L2.22522 38.9786C2.11917 38.8952 2.13432 38.7587 2.08129 38.6526L2.08887 38.6602C1.89949 38.5616 2.04342 38.3341 1.90706 38.2128L1.91464 38.2204C1.80859 38.1219 1.81616 37.9778 1.77071 37.8565C1.77829 37.8262 1.77071 37.7958 1.74798 37.7731C1.66466 37.6821 1.67981 37.5456 1.61921 37.4471L1.62678 37.4622C1.44498 37.3561 1.58133 37.1286 1.46013 36.9997L1.4677 37.0073C1.30105 36.886 1.42225 36.6737 1.30862 36.5372L1.3162 36.5448C1.14954 36.4159 1.25559 36.196 1.15712 36.0368C1.16469 35.9989 1.15712 35.9686 1.13439 35.9458C1.00561 35.817 1.11924 35.6122 0.998037 35.4758L1.00561 35.4833C0.816231 35.3165 1.00561 35.0512 0.846532 34.8768V34.8844C0.672302 34.71 0.846532 34.4446 0.695027 34.2702L0.702603 34.2778C0.528373 34.0807 0.672301 33.8153 0.558673 33.6106C0.566248 33.5803 0.566248 33.55 0.543523 33.5272C0.361717 33.2922 0.558674 32.9813 0.399594 32.7387C0.429895 32.6932 0.422318 32.6553 0.384442 32.6174C0.232938 32.3672 0.392018 32.0563 0.255664 31.8061C0.248088 31.7227 0.240513 31.6393 0.232938 31.5559C0.0662826 31.1996 0.255664 30.7977 0.104159 30.4338C0.14961 30.2518 0.13446 30.0699 0.0738585 29.8879C-0.0246195 28.6748 -0.0246195 27.4617 0.0738585 26.2486C0.126885 26.0666 0.14961 25.8771 0.104159 25.6951C0.263239 25.3387 0.0662826 24.9445 0.232938 24.5806C0.240513 24.4896 0.248088 24.4062 0.255664 24.3152C0.399593 24.065 0.240513 23.7693 0.384442 23.5191C0.392018 23.4357 0.407169 23.3599 0.414744 23.2765C0.528372 23.0642 0.399593 22.814 0.543523 22.6093C0.573824 22.5789 0.581398 22.541 0.558673 22.5031C0.695027 22.306 0.543523 22.0482 0.702603 21.8511C0.725329 21.8283 0.732904 21.798 0.717753 21.7601C0.801081 21.6009 0.725328 21.3962 0.846532 21.2445C0.876833 21.2142 0.884408 21.1839 0.869258 21.146C0.967736 20.9867 0.876833 20.782 1.00561 20.638C1.02076 20.6152 1.02834 20.5849 1.02076 20.5546C1.11167 20.3953 1.01319 20.1755 1.17227 20.039L1.16469 20.0466C1.27832 19.9101 1.16469 19.7054 1.3162 19.5765V19.5841C1.44497 19.4552 1.32377 19.2429 1.4677 19.1216V19.1292C1.60405 19.0079 1.47528 18.788 1.62678 18.6742L1.61921 18.6818C1.74798 18.5529 1.6192 18.3331 1.78586 18.2269L1.77829 18.2345C1.84646 18.1359 1.82374 17.9995 1.90706 17.9085C1.92979 17.8857 1.93736 17.8554 1.93736 17.8251C1.98282 17.7038 1.97524 17.5597 2.08129 17.4611L2.07372 17.4687C2.1419 17.3702 2.12675 17.2413 2.21007 17.1503C2.36158 17.0441 2.2025 16.8015 2.39188 16.7105L2.3843 16.7181C2.43733 16.612 2.42218 16.4755 2.53581 16.3997L2.52823 16.4073C2.59641 16.3087 2.57368 16.1722 2.67974 16.0888L2.67216 16.0964C2.74792 16.0054 2.72519 15.8689 2.82367 15.7855V15.7931C2.907 15.7021 2.88427 15.5657 2.97517 15.4823C3.06607 15.3989 3.03577 15.2548 3.13425 15.179V15.1866C3.21758 15.0956 3.18728 14.9515 3.29333 14.8757L3.28576 14.8833C3.36151 14.7923 3.33121 14.6483 3.45241 14.58L3.44484 14.5876C3.51301 14.4966 3.48271 14.345 3.61907 14.2843L3.61149 14.2919C3.67209 14.1099 3.78572 13.9583 3.89935 13.8067V13.8142C3.98268 13.7308 3.95238 13.5792 4.07358 13.5185L4.066 13.5261C4.14176 13.3517 4.24023 13.1925 4.36144 13.0561L4.35386 13.0636C4.43719 12.9802 4.39174 12.821 4.53567 12.7755L4.52809 12.7831C4.52809 12.6921 4.59627 12.6466 4.65687 12.6011L4.6493 12.6087C4.73263 12.5253 4.69475 12.3661 4.83868 12.3206L4.8311 12.3282C4.83868 12.2372 4.89928 12.1917 4.95988 12.1462L4.95231 12.1538C5.05836 12.0022 5.12654 11.8202 5.27047 11.6989L5.26289 11.7065C5.28562 11.6307 5.35379 11.5852 5.39925 11.5321C5.49772 11.4639 5.45227 11.297 5.5962 11.2591L5.58863 11.2667C5.58863 11.1757 5.6568 11.1227 5.72498 11.0848L5.71741 11.0923C5.74771 11.0165 5.80831 10.971 5.85376 10.918C5.98254 10.7815 6.02799 10.5843 6.18707 10.4858L6.17949 10.4934C6.19464 10.41 6.25525 10.3569 6.32342 10.319L6.31585 10.3266C6.34615 10.2583 6.40675 10.2128 6.45978 10.1598C6.61128 9.95505 6.74764 9.73518 6.95217 9.57596L6.94459 9.58354C6.95974 9.49255 7.01277 9.43948 7.0961 9.41673L7.08852 9.42432C7.11125 9.34092 7.17185 9.29542 7.24003 9.25751L7.23245 9.2651C7.26275 9.19686 7.32335 9.14379 7.38396 9.09829L7.37638 9.10588C7.41426 9.03764 7.46728 8.99215 7.52789 8.94666L7.52031 8.95424C7.56576 8.89358 7.61879 8.84809 7.67182 8.79502C7.72484 8.74194 7.77029 8.68887 7.82332 8.64338C8.02785 8.3401 8.27783 8.0899 8.58084 7.88519C8.63387 7.83212 8.67932 7.77904 8.73235 7.73355C8.78537 7.68048 8.83082 7.6274 8.89143 7.58191L8.88385 7.58949C8.9293 7.52884 8.98233 7.47577 9.04293 7.43786L9.03536 7.44544C9.07323 7.3772 9.12626 7.32413 9.20201 7.2938L9.19444 7.30138C9.23231 7.22556 9.27776 7.17249 9.36109 7.14974L9.35352 7.15732C9.38382 7.07392 9.42927 7.02085 9.52017 7.00569L9.5126 7.01327C9.67168 6.80856 9.89136 6.67208 10.0959 6.52044C10.1489 6.46737 10.1944 6.40672 10.2625 6.37639L10.255 6.38397C10.2928 6.31573 10.3459 6.25508 10.4292 6.23991L10.4216 6.2475C10.5277 6.08069 10.7246 6.0352 10.8534 5.91389C10.9064 5.86082 10.9519 5.80016 11.0276 5.77742L11.0201 5.785C11.0579 5.70918 11.1034 5.64852 11.2019 5.64852L11.1943 5.65611C11.2246 5.51205 11.3988 5.55754 11.467 5.45898C11.52 5.41349 11.5655 5.34525 11.6412 5.3225L11.6337 5.33008C11.7549 5.17845 11.9367 5.11021 12.0882 5.01164L12.0806 5.01923C12.126 4.95099 12.1715 4.89033 12.2624 4.88275L12.2548 4.89033C12.2927 4.74628 12.4594 4.78419 12.5427 4.70079L12.5351 4.70837C12.5806 4.64771 12.6336 4.57947 12.7169 4.57947L12.7093 4.58706C12.7548 4.443 12.9139 4.48091 12.9972 4.40509L12.9896 4.41267C13.126 4.28378 13.2851 4.18522 13.4669 4.11698L13.4593 4.12456C13.5199 3.99567 13.6714 4.03358 13.7547 3.95018H13.7471C13.8987 3.83645 14.0426 3.72272 14.232 3.66206L14.2244 3.66965C14.2774 3.53317 14.4365 3.5635 14.5274 3.49526L14.5198 3.50284C14.588 3.38153 14.7319 3.41186 14.8228 3.33604L14.8153 3.34362C14.891 3.23748 15.0349 3.2678 15.1258 3.1844H15.1183C15.194 3.08584 15.3379 3.11617 15.4213 3.02518C15.5046 2.9342 15.641 2.95695 15.7319 2.87354H15.7243C15.8076 2.77498 15.944 2.79773 16.0349 2.72191L16.0273 2.72949C16.1106 2.63092 16.247 2.64609 16.3455 2.57785L16.3379 2.58543C16.4136 2.4717 16.5576 2.49445 16.656 2.43379L16.6409 2.44138C16.7318 2.25183 16.9666 2.41105 17.0803 2.25941C17.1712 2.17601 17.3075 2.19117 17.3984 2.12294L17.3908 2.13052C17.4893 2.02437 17.6332 2.02437 17.7544 1.98646C17.7847 1.99404 17.815 1.98646 17.8378 1.95613C17.9287 1.87273 18.065 1.8879 18.1635 1.82724L18.1559 1.83482C18.2696 1.66802 18.4892 1.79691 18.6104 1.66802L18.6029 1.6756C18.7241 1.52396 18.9362 1.65286 19.0574 1.51638H19.0498C19.171 1.37233 19.3831 1.49364 19.5119 1.36474H19.5043C19.6331 1.22069 19.8376 1.33442 19.974 1.21311L19.9664 1.22069C20.1255 1.02356 20.3982 1.22069 20.5649 1.05389C20.7088 0.924993 20.9133 1.00839 21.0724 0.917411C21.1103 0.932575 21.1406 0.924993 21.1709 0.894666C21.33 0.773355 21.5269 0.849174 21.6936 0.765773C21.7239 0.773355 21.7466 0.765773 21.7769 0.750609C21.9739 0.591389 22.2314 0.735445 22.4359 0.606553C22.4738 0.621717 22.5041 0.621717 22.5344 0.591389C22.7692 0.417005 23.0798 0.614135 23.3147 0.447333C23.3601 0.47766 23.4056 0.470079 23.4434 0.432169C23.701 0.280531 23.9964 0.439751 24.254 0.303276C24.3373 0.295695 24.4206 0.288113 24.504 0.280531C25.0039 0.0530734 25.4509 0.272949 25.8599 0.0985649Z" fill="black"/>
<path d="M25.898 54.984C24.7465 54.9006 23.6027 54.7338 22.474 54.4988C20.1029 53.9983 17.8228 53.2022 15.6714 52.0877C12.1035 50.2377 9.09613 47.7129 6.6266 44.5437C4.17223 41.3972 2.53598 37.8565 1.63453 33.9745C1.36939 32.8221 1.15729 31.6545 1.09669 30.4717C1.09669 30.4186 1.08154 30.3655 1.08911 30.32C1.13456 30.0698 0.877004 29.8196 1.07396 29.5694C1.33909 29.7059 1.43 29.9864 1.5815 30.2139C4.43736 34.3536 8.04317 37.6745 12.4292 40.131C13.0201 40.4646 13.6261 40.7755 14.2397 41.0636C14.5579 41.2152 14.7472 41.4351 14.8988 41.746C15.7017 43.4595 16.6714 45.082 17.7773 46.6211C19.3151 48.7668 21.0953 50.685 23.0951 52.3986C24.0724 53.2326 25.1026 54.0059 26.1707 54.7186C26.2464 54.7717 26.3904 54.8172 26.3601 54.9233C26.3146 55.0826 26.1555 54.9764 26.0495 54.9992C26.0116 54.9992 25.9586 54.984 25.898 54.984Z" fill="#18EAEF"/>
<path d="M26.2691 1.14482C24.5268 2.31244 22.883 3.60894 21.3906 5.07984C18.7848 7.6501 16.6485 10.5691 15.0577 13.8749C14.8078 14.398 14.5426 14.8453 13.9366 14.9818C11.7019 16.1115 9.59601 17.4384 7.6719 19.0457C5.33873 21.0019 3.27827 23.2006 1.57384 25.733C1.47536 25.877 1.36931 26.0211 1.26326 26.1576C0.854193 26.0438 1.0663 25.7633 1.08902 25.5283C1.14963 24.1408 1.40718 22.776 1.74049 21.434C2.52074 18.2799 3.81611 15.3457 5.65689 12.6617C8.6188 8.3628 12.4822 5.15565 17.2621 3.06305C19.2014 2.21387 21.2164 1.60732 23.3072 1.25855C24.1253 1.12208 24.9434 0.97802 25.7767 0.955275C25.9812 0.962857 26.2236 0.773309 26.2691 1.14482Z" fill="#18EAEF"/>
<path d="M30.231 0.970489C31.8975 1.03873 33.5262 1.36475 35.1321 1.79692C38.7834 2.77498 42.0786 4.46575 45.0103 6.84647C48.7297 9.86407 51.4795 13.602 53.237 18.0601C53.9036 19.7509 54.3733 21.5023 54.699 23.2841C54.8732 24.2242 54.9338 25.1795 55.0399 26.1349C55.0474 26.2107 55.0323 26.2865 55.0247 26.3623C55.0247 26.3775 55.002 26.3926 54.9868 26.3926C54.9641 26.3926 54.9338 26.3851 54.9187 26.3699C54.8656 26.3168 54.8202 26.2562 54.7747 26.1955C53.5779 24.3455 52.1764 22.6623 50.6311 21.0929C50.5781 21.0398 50.525 20.9867 50.472 20.9337C50.3735 20.8351 50.3659 20.729 50.4266 20.5925C50.6235 20.1148 50.6614 19.6447 50.5402 19.1216C50.3053 18.0525 48.9342 16.9986 47.5025 17.5825C47.0404 17.9616 46.6692 17.7644 46.245 17.4536C44.8588 16.4452 43.3664 15.596 41.8135 14.8681C41.4499 14.6937 41.2226 14.4587 41.0484 14.0948C39.8742 11.6231 38.3895 9.3485 36.6245 7.25589C35.2382 5.6182 33.708 4.11698 32.0036 2.80531C31.2688 2.23667 30.5037 1.70593 29.7462 1.15246C29.7916 0.780942 30.0416 0.962908 30.231 0.970489Z" fill="#18EAEF"/>
<path d="M29.6021 54.8324C30.6626 54.1955 31.6399 53.4373 32.5943 52.6488C35.2154 50.4728 37.4425 47.948 39.2681 45.0669C39.9272 44.0206 40.5256 42.9439 41.0483 41.8218C41.1922 41.5185 41.3513 41.2759 41.6846 41.1167C43.3815 40.3282 44.995 39.3956 46.51 38.2962C46.6312 38.2052 46.7373 38.2128 46.8509 38.2886C46.9797 38.372 47.0933 38.4706 47.2221 38.5464C48.669 39.3653 50.5628 38.4327 50.631 36.56C50.6461 36.1733 50.5173 35.8093 50.328 35.4833C50.2068 35.2786 50.2749 35.1649 50.4113 35.0284C51.4567 34.0048 52.449 32.9282 53.3353 31.753C53.8505 31.0706 54.3353 30.3579 54.8352 29.668C54.8731 29.6149 54.9564 29.5998 55.017 29.5694C55.0246 29.6225 55.0473 29.668 55.0398 29.7211C54.9867 30.3276 54.964 30.9342 54.8731 31.5256C54.6686 32.9206 54.3959 34.3005 53.9944 35.6577C52.9338 39.2364 51.2218 42.4738 48.8281 45.3246C45.2753 49.5553 40.8438 52.4592 35.5487 54.0211C34.1473 54.4305 32.7231 54.7414 31.2611 54.8627C30.8596 54.893 30.4581 54.9537 30.0642 55.0067C29.8824 55.0219 29.64 55.2039 29.6021 54.8324Z" fill="#18EAEF"/>
<path d="M20.8604 35.2938C21.3906 34.9981 21.8148 34.5583 22.2769 34.1717C23.3753 33.2391 24.4056 32.2383 25.4055 31.2071C25.4964 31.1162 25.5721 31.0176 25.6706 30.9342C25.7464 30.866 25.8449 30.8356 25.9433 30.9039C26.2615 31.1086 26.5872 31.2981 26.9584 31.3891C27.2538 31.4573 27.5493 31.5104 27.8447 31.5635C27.9962 31.5938 28.0568 31.6772 28.0341 31.8289C27.375 36.0292 24.3904 39.0392 20.5573 39.9187C19.1862 40.2296 17.8075 40.2144 16.4288 39.9491C16.2016 39.9036 16.0804 39.7747 16.0349 39.5548C15.891 38.7815 15.7849 38.0081 15.838 37.2272C15.9289 35.8018 16.247 34.4295 16.9288 33.1709C18.4211 30.411 20.7013 28.7051 23.7995 28.1213C23.9207 28.0986 24.0419 28.0607 24.1707 28.0379C24.3147 28.0152 24.4207 28.0531 24.4359 28.2123C24.4965 28.9629 24.7616 29.6301 25.2237 30.2215C25.3373 30.3656 25.254 30.449 25.1631 30.5324C24.5571 31.101 23.9435 31.6621 23.345 32.2383C22.4512 33.095 21.6255 34.0124 20.8149 34.945C20.7316 35.036 20.671 35.1497 20.6028 35.2559C20.6331 35.3393 20.5801 35.3999 20.5346 35.453C20.4816 35.4985 20.4361 35.5516 20.3831 35.6046C20.3528 35.635 20.3225 35.6577 20.2846 35.688L20.3452 35.7184L20.3528 35.6501C20.3983 35.6122 20.4361 35.5819 20.4664 35.544C20.527 35.4909 20.5801 35.4303 20.6331 35.3772C20.7164 35.3317 20.7846 35.3014 20.8604 35.2938Z" fill="white"/>
<path d="M35.17 20.6835C34.1246 21.4417 33.2005 22.3363 32.2839 23.2386C31.7081 23.7996 31.1551 24.391 30.587 24.9672C30.39 25.172 30.337 25.1871 30.1401 25.0506C29.5719 24.6488 28.9356 24.4289 28.2463 24.3607C28.125 24.3455 28.072 24.2773 28.072 24.1636C28.0947 23.6025 28.2387 23.0642 28.4205 22.541C29.6855 18.9775 32.1475 16.756 35.8745 15.9903C37.0714 15.7401 38.2759 15.778 39.4803 15.9903C39.753 16.0357 39.8591 16.1646 39.9045 16.4224C40.4803 19.4779 39.8439 22.2302 37.8744 24.6488C36.4351 26.4154 34.5489 27.4617 32.3369 27.9545C32.1627 27.9924 31.9884 28.0076 31.8142 28.0152C31.7081 28.0152 31.6248 27.9394 31.6097 27.8332C31.5718 27.583 31.5718 27.3252 31.5112 27.0826C31.3976 26.6429 31.2157 26.2258 30.943 25.8543C30.8294 25.7027 30.8597 25.6041 30.9885 25.4677C31.7839 24.6943 32.5793 23.9209 33.352 23.1248C34.0868 22.3666 34.8064 21.5857 35.4276 20.7214C35.4049 20.5849 35.5033 20.5167 35.5715 20.4333C35.6018 20.3954 35.6397 20.365 35.6851 20.3423L35.6776 20.274L35.6397 20.3271C35.5791 20.3802 35.5336 20.4408 35.473 20.4939C35.3897 20.5849 35.2912 20.6531 35.17 20.6835Z" fill="white"/>
<path d="M35.223 35.0815C34.9276 34.5508 34.4958 34.1186 34.1019 33.6637C33.208 32.6326 32.2839 31.6317 31.2915 30.6916C31.1627 30.5703 31.0415 30.4414 30.9279 30.3125C30.8824 30.2594 30.8597 30.1988 30.9203 30.1154C31.0339 29.9486 31.1248 29.7666 31.2385 29.5998C31.4127 29.3496 31.3672 29.0008 31.6248 28.7961C32.2687 28.7734 32.8747 28.417 33.5565 28.6748C36.7608 29.8803 38.8364 32.1094 39.753 35.4075C40.1545 36.8405 40.1545 38.2962 39.8818 39.7596C39.8136 40.1386 39.7303 40.1993 39.344 40.2675C36.6548 40.7376 34.1852 40.1993 31.943 38.6374C30.3673 37.5381 29.2613 36.0672 28.5417 34.2854C28.3978 33.9215 28.3523 33.5803 28.4735 33.186C28.6174 32.7311 28.6553 32.2459 28.7462 31.7758C28.7765 31.5938 28.8523 31.4574 29.0568 31.3967C29.4659 31.2754 29.8598 31.0858 30.1931 30.8205C30.3522 30.6916 30.4582 30.7598 30.5718 30.8887C31.4733 31.9123 32.4278 32.8903 33.4201 33.8229C33.9504 34.3233 34.4655 34.8465 35.0715 35.2559C35.1321 35.3241 35.2306 35.3166 35.3064 35.3469C35.3821 35.3848 35.4351 35.453 35.5033 35.5061C35.5564 35.5592 35.6094 35.6198 35.67 35.6653C35.7003 35.6956 35.7306 35.726 35.7609 35.7639L35.8139 35.726C35.8139 35.726 35.7533 35.7184 35.7457 35.7108C35.7154 35.6653 35.6776 35.635 35.6397 35.5971C35.5867 35.544 35.5336 35.4834 35.4806 35.4379C35.4276 35.3848 35.3745 35.3317 35.3139 35.2786C35.2609 35.2256 35.2458 35.1498 35.223 35.0815Z" fill="white"/>
<path d="M20.3832 20.7138C20.4438 21.0322 20.6862 21.2218 20.8756 21.4492C22.0649 22.8898 23.3527 24.247 24.7087 25.5283C24.7996 25.6117 24.8981 25.6951 24.9814 25.7937C25.0344 25.8468 25.0571 25.9226 25.0117 25.9984C24.8223 26.3244 24.6405 26.658 24.5723 27.0371C24.542 27.2115 24.4057 27.2873 24.2466 27.3101C23.7239 27.3859 23.2012 27.4693 22.6937 27.6209C22.4816 27.6892 22.2997 27.5603 22.1179 27.492C20.3529 26.8097 18.906 25.7103 17.7849 24.1863C16.2471 22.0937 15.7169 19.7357 15.9896 17.173C15.9971 17.0972 16.0123 17.0214 16.0275 16.9456C16.1562 16.2632 16.1562 16.248 16.8607 16.1343C20.2696 15.5884 23.1936 16.5589 25.6025 19.023C26.4434 19.8798 27.0494 20.8958 27.5115 22.0027C27.6479 22.3287 27.6782 22.6244 27.5797 22.958C27.5267 23.1248 27.4964 23.2992 27.4661 23.4736C27.4055 23.7693 27.4282 24.1105 27.2843 24.3531C27.1327 24.6033 26.7388 24.5654 26.4889 24.7246C26.2086 24.899 25.9434 25.081 25.6707 25.2629C25.5723 25.3312 25.4738 25.316 25.398 25.2402C25.0571 24.899 24.7238 24.5578 24.3905 24.2166C23.2618 23.0642 22.0725 21.9648 20.815 20.9488C20.7165 20.873 20.6105 20.8048 20.5044 20.7365C20.4741 20.691 20.4287 20.6607 20.3832 20.638L20.3681 20.5849C20.3681 20.5849 20.3226 20.6304 20.3302 20.6304C20.3529 20.638 20.3756 20.6683 20.3832 20.7138Z" fill="white"/>
<path d="M50.1689 28.3109C51.4795 28.3109 52.79 28.3109 54.1005 28.3109C54.2293 28.3109 54.3505 28.3185 54.4793 28.3261C54.5777 28.3336 54.6005 28.417 54.5777 28.4853C54.5323 28.599 54.4717 28.7127 54.4035 28.8189C53.1157 30.8508 51.6461 32.7311 49.919 34.4067C49.8811 34.4447 49.8432 34.475 49.8129 34.5129C49.6917 34.6418 49.5705 34.657 49.419 34.5584C48.9872 34.3006 48.51 34.2854 48.0252 34.3309C47.0555 34.4219 46.1844 35.3014 46.1086 36.2719C46.0859 36.5979 46.0556 36.9315 46.1919 37.2424C46.2677 37.4244 46.1995 37.5305 46.0632 37.6215C44.7754 38.5086 43.4573 39.3426 42.0407 40.0098C41.9801 40.0401 41.9422 40.0553 41.9195 40.0022C41.9044 39.9567 41.874 39.9036 41.8892 39.8657C42.0407 39.4411 42.1998 39.0166 42.3589 38.592C42.9346 37.0604 43.3436 35.4758 43.6467 33.8684C43.8057 33.0041 43.98 32.1398 44.0103 31.2527C44.0103 31.1769 44.0178 31.101 44.0254 31.0252C44.1163 30.3125 44.1239 30.3201 44.5936 29.759C44.8966 29.3875 45.2072 29.0236 45.4647 28.6217C45.6238 28.3715 45.798 28.2881 46.0783 28.2957C47.4494 28.3185 48.8054 28.3109 50.1689 28.3109Z" fill="#18EAEF"/>
<path d="M50.2144 27.636C48.9266 27.636 47.6464 27.6284 46.3586 27.6436C45.9723 27.6512 45.6996 27.5754 45.4875 27.2038C45.1996 26.6958 44.8133 26.2561 44.3966 25.8543C44.2224 25.6875 44.1542 25.5055 44.1012 25.2704C43.9724 24.6791 43.9724 24.0725 43.8891 23.4735C43.6088 21.5022 43.1619 19.5689 42.5104 17.6885C42.321 17.1426 42.1165 16.6043 41.9195 16.0584C41.9044 16.0205 41.9119 15.9599 41.9271 15.9219C41.9725 15.8234 42.0559 15.8689 42.1165 15.8992C43.5558 16.6271 44.942 17.4459 46.2374 18.4088C46.3283 18.4771 46.3662 18.5453 46.3056 18.6514C46.1011 19.0457 46.0859 19.4703 46.0935 19.9025C46.1238 20.926 47.101 21.8813 48.0858 21.9344C48.6312 21.9647 49.1387 21.8889 49.6008 21.5781C49.8357 21.4188 49.8811 21.434 50.0553 21.6008C50.3205 21.8662 50.5705 22.1543 50.828 22.4272C52.1385 23.7996 53.2824 25.3008 54.2975 26.9006C54.4263 27.0977 54.7141 27.3024 54.5475 27.5526C54.4263 27.7346 54.1233 27.6284 53.9036 27.6284C52.684 27.636 51.4492 27.636 50.2144 27.636Z" fill="#18EAEF"/>
<path d="M27.6252 3.05544C27.6252 3.5331 27.6176 4.01076 27.6252 4.496C27.6252 4.72346 27.5646 4.87509 27.3298 4.95091C27.0647 5.03431 26.8298 5.18595 26.6253 5.3755C25.3375 6.52795 25.7163 8.37036 27.0192 9.08306C27.1253 9.14371 27.254 9.18162 27.3677 9.22711C27.5495 9.30293 27.6479 9.42424 27.6328 9.62895C27.6176 9.80334 27.6328 9.9853 27.6252 10.1597C27.6252 10.2658 27.5873 10.3492 27.4889 10.4099C26.9056 10.8117 26.3526 11.2439 25.8223 11.714C25.6632 11.858 25.4663 11.8808 25.2617 11.8884C23.8755 11.9718 22.5195 12.2144 21.1635 12.5025C19.6409 12.8285 18.1486 13.2607 16.6866 13.8142C16.4517 13.9052 16.2093 13.9734 15.9745 14.0416C15.9518 14.0492 15.8836 13.9734 15.8836 13.9582C15.9139 13.8597 15.9518 13.7687 15.9972 13.6777C16.9744 11.7671 18.141 9.97014 19.5121 8.31728C21.6256 5.7546 24.0649 3.54068 26.845 1.71344C27.0344 1.59213 27.2237 1.47082 27.4207 1.3495C27.5192 1.28885 27.6176 1.3495 27.6252 1.46323C27.6328 1.59213 27.6328 1.71344 27.6328 1.84233C27.6252 2.25175 27.6252 2.65359 27.6252 3.05544Z" fill="#18EAEF"/>
<path d="M16.1183 41.9204C17.0955 42.2388 18.0575 42.6179 19.0499 42.8909C20.3831 43.2548 21.7239 43.5808 23.0951 43.7779C23.8905 43.8917 24.6859 44.0357 25.4888 44.0661C25.6782 44.0736 25.8297 44.1343 25.9585 44.2632C26.3979 44.6878 26.8827 45.0441 27.3902 45.3777C27.5644 45.4915 27.625 45.6203 27.6175 45.8175C27.6099 45.9464 27.6023 46.0753 27.6175 46.1966C27.6857 46.6136 27.5114 46.8031 27.1175 46.9699C25.5722 47.6296 25.504 49.3582 26.1024 50.2681C26.4054 50.7306 26.8145 51.049 27.3372 51.2082C27.5417 51.2689 27.6175 51.3978 27.6175 51.6025C27.6099 52.5654 27.6175 53.5207 27.6099 54.4836C27.6099 54.6125 27.5266 54.6504 27.4129 54.5822C26.8827 54.241 26.3448 53.9074 25.8373 53.5434C24.1556 52.3303 22.5799 50.9959 21.1558 49.4871C19.2923 47.5158 17.6788 45.3701 16.3834 42.9818C16.2319 42.6937 16.0804 42.4056 15.9365 42.1099L15.9516 42.0493C15.9743 42.0114 16.0046 41.981 16.0425 41.9583C16.0577 41.9431 16.1183 41.9204 16.1183 41.9204Z" fill="#18EAEF"/>
<path d="M2.88435 28.3108C3.08888 28.3108 3.29342 28.3336 3.49037 28.3033C4.04336 28.235 4.48273 28.3412 4.62666 28.9629C5.49023 30.358 7.4901 30.5323 8.52033 28.9629C8.55063 28.9174 8.57336 28.8719 8.58851 28.8264C8.68699 28.3639 8.99757 28.2426 9.42936 28.3033C9.55056 28.3184 9.67934 28.3108 9.80812 28.3033C9.9975 28.2957 10.149 28.3639 10.2551 28.5307C10.6793 29.1903 11.1641 29.7969 11.7322 30.3504C11.8459 30.4641 11.9065 30.5854 11.9216 30.7446C11.9519 30.9948 12.0049 31.245 12.0201 31.4952C12.111 32.6249 12.3307 33.7395 12.5655 34.8464C12.914 36.4993 13.4291 38.0991 14.0275 39.6761C14.0578 39.7444 14.1033 39.8126 14.1184 39.8808C14.126 39.9187 14.1109 39.9794 14.0806 40.0097C14.0654 40.0249 13.9972 40.0022 13.9594 39.987C13.0579 39.5397 12.1943 39.0241 11.3383 38.4858C9.48996 37.3333 7.79311 35.9913 6.23261 34.4825C4.4297 32.7387 2.87678 30.7901 1.57384 28.652C1.55111 28.6065 1.52081 28.5686 1.49809 28.5231C1.43748 28.4094 1.48294 28.3184 1.61171 28.3184C2.02835 28.3108 2.45256 28.3184 2.88435 28.3108C2.88435 28.3184 2.88435 28.3108 2.88435 28.3108Z" fill="#18EAEF"/>
<path d="M40.0635 42.0948C38.9575 44.3769 37.5182 46.4392 35.8668 48.3575C33.9275 50.6093 31.7004 52.5275 29.2309 54.1728C29.0869 54.2714 28.9354 54.3624 28.7839 54.4533C28.6324 54.5443 28.534 54.4988 28.5188 54.3472C28.5188 54.3244 28.5188 54.2941 28.5188 54.2714C28.5188 53.3615 28.5188 52.4517 28.5188 51.5419C28.5188 51.3447 28.5794 51.2386 28.7915 51.1628C29.6399 50.8443 30.1172 50.215 30.2611 49.3128C30.3596 48.6987 30.2005 48.1603 29.8445 47.6827C29.5869 47.3415 29.2687 47.0458 28.8445 46.9093C28.587 46.8335 28.4961 46.6667 28.5188 46.3937C28.5491 46.1208 28.4733 45.8099 28.5794 45.5749C28.6703 45.3702 28.9582 45.264 29.1551 45.1048C29.4884 44.8319 29.8293 44.5741 30.1399 44.2784C30.3217 44.1116 30.5111 44.0585 30.7459 44.0358C33.67 43.8007 36.5031 43.1487 39.2605 42.1403C39.4726 42.0645 39.6847 41.9811 39.8968 41.9052C40.0483 41.8825 40.1089 41.9431 40.0635 42.0948Z" fill="#18EAEF"/>
<path d="M9.58083 27.6361C9.50508 27.6361 9.42933 27.6361 9.35358 27.6361C8.90664 27.6209 8.89906 27.6285 8.77029 27.2191C8.68696 26.9537 8.57333 26.7035 8.41425 26.476C7.87641 25.7254 7.12646 25.4525 6.23258 25.5662C5.39173 25.6724 4.81601 26.1652 4.46755 26.9385C4.37665 27.1433 4.3615 27.4086 4.21757 27.5527C4.03576 27.7346 3.73275 27.6361 3.49034 27.6361C2.88433 27.6437 2.27831 27.6437 1.67229 27.6361C1.45261 27.6361 1.38443 27.5299 1.49048 27.3631C1.80864 26.8476 2.1268 26.3396 2.47526 25.8392C3.84638 23.8603 5.43718 22.0785 7.23251 20.4788C9.21722 18.7122 11.3913 17.2185 13.7548 16.0054C13.823 15.9675 13.8836 15.9296 13.9593 15.9069C13.9972 15.8917 14.0654 15.9069 14.0881 15.9296C14.1108 15.9524 14.126 16.0206 14.1108 16.0585C13.6109 17.2716 13.2018 18.5075 12.8761 19.7736C12.4746 21.3052 12.164 22.8595 12.0201 24.4441C11.9216 25.498 11.914 25.4904 11.2171 26.3092C10.952 26.6125 10.7171 26.9385 10.4974 27.2797C10.3308 27.5375 10.1414 27.6967 9.82324 27.6512C9.73234 27.6285 9.65659 27.6361 9.58083 27.6361Z" fill="#18EAEF"/>
<path d="M40.0559 14.0189L39.9802 14.0265L39.912 14.0038C39.8438 13.9734 39.7908 13.9279 39.7226 13.9052C38.4878 13.4882 37.2606 13.0409 35.988 12.7376C34.7911 12.4495 33.5867 12.1993 32.367 12.0325C31.8444 11.9642 31.3141 11.9112 30.7914 11.8732C30.4051 11.8505 30.0793 11.714 29.7839 11.4411C29.4733 11.153 29.1097 10.9179 28.7612 10.6677C28.6097 10.554 28.5037 10.4327 28.5264 10.228C28.534 10.1294 28.5415 10.0233 28.5264 9.92469C28.4658 9.51527 28.6097 9.31814 29.0188 9.15134C30.4051 8.57511 30.8368 6.81611 29.8521 5.603C29.5718 5.26182 29.2082 5.03436 28.7915 4.92063C28.6173 4.87514 28.534 4.78415 28.534 4.60977C28.534 3.57863 28.534 2.53991 28.5416 1.50877C28.5416 1.46328 28.5794 1.41779 28.6097 1.34955C29.5263 1.88786 30.3823 2.50958 31.2156 3.14646C32.6246 4.22309 33.9124 5.42862 35.1169 6.71754C36.8137 8.52962 38.2606 10.5237 39.4726 12.6845C39.6317 12.9726 39.7756 13.2607 39.9271 13.5488C39.9499 13.6171 40.0029 13.6702 40.0332 13.7308C40.0559 13.7687 40.0711 13.8066 40.0786 13.8521C40.1241 13.9204 40.1089 13.9734 40.0559 14.0189Z" fill="#18EAEF"/>
<path d="M39.5938 27.8484C38.4197 27.6437 37.2303 27.6968 36.0562 27.5906C35.9577 27.583 35.8592 27.5603 35.7608 27.5375C35.6926 27.5224 35.685 27.4769 35.738 27.4314C35.7911 27.3859 35.8517 27.3404 35.9198 27.3025C37.291 26.4457 38.4045 25.3388 39.2681 23.974C39.4423 23.6935 39.4953 23.6783 39.8286 23.7921C40.8589 24.1408 41.8209 24.6261 42.6997 25.2857C43.5708 25.9453 44.3056 26.7338 44.9268 27.6361C45.0631 27.8332 45.0555 27.9849 44.9268 28.182C43.8814 29.7894 42.4875 30.9873 40.7452 31.7834C40.3589 31.9578 39.9499 32.0943 39.5484 32.2383C39.3363 32.3141 39.1696 32.2686 39.0332 32.0639C38.6999 31.5559 38.3212 31.0859 37.9045 30.6461C37.1319 29.8349 36.2456 29.1752 35.2608 28.6445C35.1093 28.5611 34.9351 28.5156 34.7987 28.3109C35.2381 28.3033 35.6547 28.3033 36.0713 28.2806C37.1016 28.2275 38.1318 28.1668 39.162 28.1062C39.3135 28.0986 39.4575 28.0379 39.6014 28.0076C39.7529 27.8636 39.9271 27.9242 40.0938 27.947C39.9423 27.8636 39.7529 27.9697 39.5938 27.8484Z" fill="white"/>
<path d="M16.5651 28.0076C16.7545 28.0986 16.9515 28.1062 17.156 28.1213C18.1862 28.1744 19.2164 28.2275 20.2467 28.2805C20.3452 28.2881 20.4512 28.2957 20.5497 28.3033C20.5724 28.3033 20.6027 28.3109 20.6254 28.3185C20.6103 28.3639 20.6103 28.4246 20.58 28.4473C20.5042 28.508 20.4133 28.5611 20.33 28.6141C18.8907 29.4557 17.7166 30.5703 16.7999 31.9729C16.5803 32.3065 16.5348 32.3293 16.1939 32.2231C14.0123 31.518 12.2624 30.2291 10.967 28.3185C10.8534 28.1592 10.8382 28.0228 10.9519 27.8484C12.2245 25.8619 14.0047 24.5275 16.2318 23.7845C16.5424 23.6783 16.6181 23.7238 16.7848 23.9968C17.6408 25.3691 18.7619 26.476 20.1331 27.3252C20.1937 27.3631 20.2543 27.4086 20.3073 27.4617C20.3527 27.5072 20.3376 27.5603 20.2618 27.5678C19.9134 27.6058 19.5649 27.6437 19.2164 27.6588C18.3377 27.7043 17.4514 27.6967 16.5803 27.8635C16.4515 27.9621 16.3 27.909 16.1636 27.9318C16.3 27.9318 16.4591 27.8635 16.5651 28.0076Z" fill="white"/>
<path d="M27.9736 15.7552C27.913 16.3087 27.8449 16.8545 27.7994 17.408C27.7615 17.8326 27.7918 18.2724 27.7312 18.6894C27.6479 19.2428 27.7464 19.8191 27.5797 20.365C27.254 19.9252 26.9283 19.4779 26.5874 19.0533C25.9586 18.2572 25.2087 17.59 24.3603 17.0213C24.2163 16.9228 24.0648 16.8318 23.9133 16.7332C23.7618 16.6347 23.7467 16.5285 23.7997 16.3541C24.2239 14.9818 24.9208 13.7763 25.8753 12.7073C26.398 12.1234 26.9964 11.623 27.6403 11.1757C27.8221 11.0468 27.9661 11.0089 28.1857 11.153C30.072 12.3812 31.3673 14.0568 32.14 16.1646C32.1627 16.2328 32.1779 16.3087 32.193 16.3845C32.2309 16.5209 32.1779 16.6347 32.0643 16.7105C31.8825 16.8394 31.6855 16.9607 31.5037 17.0972C30.4129 17.9008 29.5038 18.8638 28.8069 20.0238C28.716 20.1754 28.6251 20.3271 28.5266 20.4711C28.5191 20.4863 28.4812 20.4939 28.4585 20.5014C28.413 20.5166 28.3827 20.4863 28.3827 20.418C28.3297 19.44 28.2918 18.4543 28.2312 17.4763C28.1933 16.9 28.1176 16.3314 28.057 15.7628C28.0267 15.7552 28.0039 15.7552 27.9736 15.7552Z" fill="white"/>
<path d="M28.019 39.8505C28.1402 39.0165 28.2311 38.2735 28.2538 37.5304C28.2689 37.03 28.3144 36.522 28.3523 36.0216C28.3523 35.9761 28.3977 35.9307 28.4204 35.8852C28.4583 35.9079 28.5189 35.9307 28.5417 35.9686C28.6174 36.0747 28.678 36.1809 28.7386 36.287C29.5189 37.5229 30.5112 38.5464 31.7157 39.3728C31.799 39.4259 31.8899 39.479 31.9656 39.5396C32.1778 39.6913 32.1929 39.7292 32.102 39.9794C31.496 41.655 30.5188 43.0728 29.1477 44.2101C28.875 44.4375 28.5795 44.6271 28.2992 44.8394C28.1629 44.9455 28.0341 44.9531 27.8902 44.847C27.5644 44.6043 27.2236 44.392 26.913 44.1343C25.4888 42.9742 24.4965 41.5109 23.8829 39.7823C23.7693 39.4714 23.792 39.4032 24.0723 39.2212C25.2086 38.4858 26.1706 37.5683 26.9509 36.4614C27.1251 36.2112 27.2766 35.9534 27.4432 35.7032C27.466 35.6653 27.5114 35.6274 27.5569 35.6198C27.6705 35.6122 27.6402 35.7108 27.6478 35.7714C27.6932 36.5296 27.7463 37.2802 27.7766 38.0384C27.7993 38.6146 27.8675 39.1833 28.019 39.8505Z" fill="white"/>
<path d="M40.6393 39.7671C40.6621 39.3653 40.7302 38.971 40.7833 38.5768C40.8515 38.0384 40.8211 37.4774 40.7378 36.9315C40.6924 36.6358 40.609 36.3477 40.8211 36.0671C40.8969 35.961 40.8439 35.8018 40.7227 35.7411C40.5636 35.6577 40.5409 35.5288 40.4954 35.3772C40.3515 34.8995 40.1848 34.4219 40.0409 33.9442C39.9424 33.6182 39.7 33.3452 39.6924 32.9889C40.1167 32.7766 40.556 32.5795 41.0257 32.5567C41.2454 32.5415 41.4196 32.5643 41.4953 32.3141C41.5105 32.2686 41.5484 32.2231 41.5862 32.2004C42.0332 31.9274 42.4801 31.6469 42.9346 31.3815C43.0861 31.2905 43.2679 31.4194 43.2225 31.5862C43.0634 32.1852 43.2073 32.8524 42.8286 33.4059C42.7831 33.4741 42.7831 33.603 42.8059 33.694C42.8589 33.876 42.8134 34.0428 42.7983 34.2171C42.7755 34.4598 42.768 34.4522 42.4195 34.5128C42.1998 34.5508 42.1468 34.6493 42.2226 34.8919C42.2301 34.9223 42.2983 34.9298 42.3438 34.9526C42.3968 34.9147 42.4498 34.9223 42.4953 34.9678C42.6089 35.0208 42.6165 35.1194 42.5862 35.2255C42.2907 36.2339 42.1241 37.2878 41.6317 38.2356C41.5635 38.3645 41.6014 38.5388 41.5408 38.6677C41.4196 38.9331 41.4347 39.2667 41.0711 39.3956C40.9045 39.4563 40.9802 39.661 40.9802 39.805C41.0105 39.8429 41.0257 39.8808 41.0181 39.9263C41.0105 39.9642 40.9954 39.987 40.9878 39.987C41.003 40.0401 40.9878 40.0856 40.9499 40.1159C40.9121 40.1841 40.8514 40.2296 40.8514 40.313C40.859 40.3585 40.8439 40.3888 40.806 40.4116C40.7151 40.5026 40.6166 40.5026 40.5181 40.4116C40.5181 40.3585 40.5257 40.313 40.5257 40.2599C40.6393 40.1235 40.556 39.9263 40.6393 39.7671Z" fill="#FDFDFD"/>
<path d="M23.239 15.8538C23.2011 15.922 23.1632 15.9827 23.1329 16.0509C23.0799 16.1798 23.0269 16.248 22.8678 16.1874C22.5496 16.0661 22.2542 15.8765 21.9057 15.8462C21.8375 15.6946 21.7694 15.5581 21.58 15.7173C21.4361 15.6718 21.2997 15.6036 21.1558 15.5732C20.9815 15.5429 20.9285 15.4292 20.8603 15.2851C20.7467 15.0653 20.5876 15.0198 20.4589 15.179C20.2543 15.4444 20.0346 15.3837 19.7998 15.3003C19.7316 15.2776 19.6786 15.2169 19.618 15.1714C19.5119 15.088 19.3832 15.0577 19.2695 15.1335C18.9893 15.323 18.6938 15.27 18.4135 15.1638C18.262 15.1032 18.1484 15.0956 17.9969 15.1714C17.6939 15.3155 17.3985 15.3306 17.0879 15.1259C16.9136 15.0122 16.7621 15.1562 16.7167 15.361C16.6106 15.5429 16.3834 15.4064 16.2622 15.5278L16.2016 15.5202L16.141 15.5278C16.0349 15.4595 16.0652 15.3079 15.9743 15.2321C15.9213 15.179 15.8607 15.1335 15.8455 15.0577C15.7925 15.0273 15.7774 14.997 15.8001 14.9819C15.8152 14.9667 15.838 14.9591 15.8607 14.9591C16.6182 14.6331 17.4212 14.4284 18.1787 14.1099C18.3681 14.0265 18.4969 14.0114 18.5802 14.254C18.6181 14.3677 18.7772 14.4056 18.9059 14.345C19.0044 14.2995 19.0574 14.2009 19.0347 14.0948C18.9968 13.9052 19.0877 13.7991 19.2468 13.7612C20.0271 13.564 20.8073 13.3745 21.5876 13.1849C21.83 13.1243 22.08 13.094 22.3224 13.0257C22.5269 12.9651 22.7011 12.9575 22.8829 13.1015C23.0193 13.2077 23.1708 13.1546 23.2693 13.0106C23.3602 12.8741 23.4889 12.821 23.648 12.8058C23.8071 12.7983 23.898 12.821 24.0041 12.9802C24.1859 13.2608 24.3525 13.2077 24.4889 12.8513C24.504 12.8058 24.5116 12.73 24.5419 12.7149C24.6101 12.6845 24.6858 12.6694 24.754 12.6845C24.8904 12.7149 24.7919 12.7983 24.7692 12.8438C24.5495 13.1774 24.2919 13.4882 24.1404 13.8597C24.095 14.1251 23.6783 13.9659 23.6708 14.2767C23.6783 14.3905 23.7692 14.5042 23.6935 14.6255C23.6405 14.7696 23.5799 14.9212 23.5268 15.0653C23.1481 15.2321 23.2541 15.5657 23.239 15.8538Z" fill="#FDFDFD"/>
<path d="M39.9046 15.088C39.7607 15.2624 39.5713 15.3003 39.3592 15.2472C38.3972 15.0046 37.4275 15.1487 36.4579 15.1108C36.2458 15.1032 36.0867 15.2548 35.8822 15.2548C35.7155 15.2548 35.5564 15.3155 35.3746 15.2245C35.1019 15.088 35.0868 15.1108 34.8747 15.3761C34.8065 15.4595 34.7383 15.5126 34.6474 15.5505C34.4808 15.6036 34.3141 15.6642 34.155 15.7249C33.8823 15.3913 33.9505 15.8235 33.852 15.8614C33.6096 15.8538 33.4354 16.0206 33.2233 16.0964C33.1324 16.1267 33.049 16.2025 32.943 16.1267C32.8142 16.0282 32.7612 15.8841 32.7991 15.7249C32.8218 15.6339 32.9051 15.5581 32.9506 15.4747C33.0187 15.3155 32.9506 15.1335 32.7915 15.1259C32.3748 15.1183 32.3521 14.7696 32.2385 14.5194C32.2082 14.4587 32.3142 14.3526 32.3445 14.254C32.3976 14.072 32.337 13.8977 32.1779 13.9128C31.7612 13.9507 31.7006 13.6095 31.5264 13.3821C31.4734 13.3138 31.5264 13.2456 31.587 13.1925C31.64 13.147 31.7158 13.094 31.7385 13.0333C31.784 12.912 31.8219 12.7831 31.9809 12.7983C32.1703 12.8134 32.3597 12.7755 32.5036 13.003C32.6476 13.238 32.7082 13.2456 32.9203 13.0864C33.1096 12.9423 33.3142 12.9348 33.4884 13.0106C34.0262 13.238 34.6171 13.1774 35.1625 13.3442C35.7155 13.511 36.2761 13.6247 36.8367 13.7612C36.9276 13.8825 36.9503 14.1554 37.2078 13.9356C37.4881 14.019 37.8063 14.0038 37.9957 14.3071C38.026 14.3601 38.1396 14.4056 38.1926 14.3905C38.6244 14.2767 38.9653 14.527 39.3365 14.6558C39.541 14.7241 39.7683 14.7696 39.9349 14.9364C39.9804 14.9743 39.9955 15.0122 39.9804 15.0501C39.9425 15.0728 39.9198 15.088 39.9046 15.088Z" fill="#FDFDFD"/>
<path d="M21.315 40.442C21.8149 40.3434 22.2694 40.1235 22.7315 39.9415C23.0573 39.8127 23.1179 39.8506 23.2542 40.1311C23.383 40.3889 23.3073 40.7073 23.4436 40.9196C23.5875 41.1471 23.7618 41.3518 23.9057 41.5868C24.0193 41.7764 23.9208 42.0038 24.0496 42.163C24.1708 42.3147 24.4057 42.345 24.4966 42.5497C24.5572 42.7014 24.7768 42.7923 24.6784 42.997C24.5572 43.2397 24.3148 43.2018 24.1481 43.1335C23.5951 42.9136 23.0042 43.0501 22.4513 42.8833C21.921 42.7241 21.368 42.6559 20.8302 42.5421C20.5877 42.4891 20.3378 42.4284 20.0954 42.3678C19.8378 42.3071 19.6333 42.2161 19.6105 41.8901C19.603 41.7536 19.3454 41.7081 19.2469 41.8446C19.0954 42.0493 18.9667 42.0493 18.747 41.9659C18.0425 41.693 17.3077 41.5262 16.6259 41.2077C16.4365 41.1167 16.5274 41.0485 16.6032 40.9499C16.8153 40.6618 17.0122 40.6315 17.338 40.9044C17.4971 41.0333 17.6258 41.1167 17.7925 40.9727C17.997 40.7983 18.2167 40.8741 18.444 40.8741C18.7242 41.1546 18.9667 40.9803 19.2469 40.8514C19.4287 40.768 19.6636 40.7073 19.8454 40.9651C19.9514 41.1167 20.156 41.094 20.2241 40.9348C20.3453 40.6467 20.6029 40.6315 20.8302 40.5481C20.9665 40.4723 21.2316 40.8514 21.315 40.442Z" fill="#FDFDFD"/>
<path d="M14.9288 16.756C15.2924 16.9 15.2849 16.9 15.2621 17.1881C15.2318 17.5597 15.2091 17.9312 15.2015 18.3103C15.2015 18.5226 15.1637 18.6818 14.9818 18.8258C14.8531 18.932 14.8758 19.0988 15.0273 19.2049C15.1333 19.2807 15.2091 19.3566 15.2318 19.493C15.3227 20.1072 15.4212 20.7213 15.5197 21.3279C15.4515 21.3582 15.3833 21.3734 15.3076 21.3734C15.3758 21.3658 15.4439 21.343 15.5045 21.3051C15.55 21.3506 15.6182 21.3961 15.6333 21.4492C15.7394 21.7373 15.8303 22.033 15.9287 22.3287C15.8681 22.4803 15.7469 22.6244 15.9893 22.7457C16.1408 22.8215 16.2999 22.9428 16.0651 23.1172C15.5576 23.193 15.1106 23.4281 14.6485 23.6328C14.4289 23.7313 14.2471 23.8299 14.0349 23.6176C13.9516 23.5342 13.7168 23.6404 13.7319 23.7389C13.8001 24.1635 13.4668 24.2924 13.2093 24.4744C13.1259 24.535 13.0426 24.5957 12.9593 24.6412C12.9214 24.6563 12.8532 24.6639 12.8305 24.6412C12.8002 24.6108 12.7926 24.5502 12.785 24.5047C12.7775 24.4819 12.7775 24.4516 12.785 24.4289C13.0123 23.936 12.9062 23.4053 12.9593 22.8897C12.9744 22.7988 13.0426 22.7608 13.1259 22.7533C13.1789 22.7533 13.2244 22.7608 13.2699 22.7836C13.3153 22.8139 13.3532 22.8063 13.3835 22.7533C13.4138 22.7154 13.4441 22.685 13.482 22.6547C13.5198 22.6244 13.5653 22.5637 13.5426 22.541C13.4744 22.4652 13.588 22.5637 13.482 22.5637C13.4289 22.5637 13.3759 22.5561 13.3229 22.5334C13.2093 22.4652 13.0123 22.4576 13.0956 22.2377C13.285 21.4643 13.4744 20.6834 13.6638 19.9025C13.7319 19.6068 13.7622 19.3111 14.1183 19.1898C14.2395 19.1443 14.2546 18.9623 14.1637 18.8637C13.9062 18.5529 14.1486 18.3103 14.2471 18.0449C14.2774 17.9539 14.3834 17.9918 14.4516 18.007C14.6107 18.0525 14.7546 18.0449 14.8076 17.8553C14.8455 17.7189 14.7849 17.59 14.6561 17.5521C14.4516 17.499 14.4364 17.3777 14.497 17.2185C14.5576 17.0592 14.6485 16.9076 14.7243 16.7484C14.7849 16.6802 14.8606 16.6802 14.9288 16.756Z" fill="#FDFDFD"/>
<path d="M13.5655 35.8397C13.5276 35.6729 13.5125 35.4985 13.4594 35.3393C13.414 35.1801 13.4291 35.0587 13.5352 34.9299C13.6413 34.7934 13.6185 34.6266 13.4746 34.5432C13.3307 34.4598 13.2549 34.3764 13.2246 34.2172C13.164 33.876 13.0504 33.5499 13.0655 33.1936C12.9595 32.8979 13.0049 32.6477 13.3004 32.4885C13.4822 32.3748 13.4594 32.1852 13.4822 32.0108C13.5352 31.9198 13.5958 31.8592 13.7019 31.935C13.9518 32.0487 14.1942 32.1246 14.3306 32.4202C14.4973 32.7842 14.8836 32.4127 15.1487 32.5946C15.3684 32.7463 15.6563 32.7918 15.9214 32.8827C16.1411 32.9661 16.1865 33.0647 16.088 33.2846C15.7926 33.9518 15.5275 34.6266 15.3911 35.3393C15.3532 35.5592 15.2851 35.688 15.0502 35.7639C14.8836 35.8169 14.8533 36.0216 14.9896 36.1278C15.179 36.2719 15.2169 36.4235 15.2017 36.6434C15.1714 37.0225 15.126 37.4016 15.1639 37.7731C15.1942 38.0612 14.8609 38.1977 14.929 38.4554C14.9821 38.6601 15.2169 38.7587 15.2396 39.0241C15.2851 39.4942 15.4214 39.9567 15.5199 40.4267C15.5502 40.5708 15.5048 40.6466 15.3457 40.6011C15.126 40.4798 15.0881 40.2448 15.0048 40.0401C14.5503 38.9255 14.1109 37.7958 13.8079 36.6282C13.7852 36.5296 13.7322 36.4387 13.6943 36.3477C13.5882 36.1809 13.9821 35.9003 13.5655 35.8397Z" fill="#FDFDFD"/>
<path d="M41.7074 17.8327C41.8135 18.0829 41.9195 18.3331 42.018 18.5909C42.1316 18.7425 41.7529 19.0231 42.1468 19.1065C42.1847 19.2505 42.1998 19.4097 42.2756 19.531C42.4574 19.8267 42.071 20.0618 42.1922 20.2968C42.2983 20.5015 42.571 20.5849 42.6165 20.873C42.6998 21.3886 42.821 21.8966 42.927 22.4122C42.9876 22.7079 43.0407 22.996 43.1013 23.2917C43.1619 23.3978 43.177 23.4964 43.0634 23.5798L43.071 23.5722C42.9573 23.739 42.9649 23.9058 43.071 24.0726C43.1619 24.1636 43.23 24.2697 43.2225 24.4062C43.2149 24.482 43.23 24.573 43.1922 24.6185C43.1013 24.7322 43.0179 24.6185 42.9498 24.573C42.7377 24.4441 42.5331 24.3001 42.321 24.156C42.2225 24.0878 42.0862 24.0347 42.071 23.8982C42.0256 23.5722 41.8438 23.5419 41.5938 23.6556C41.4499 23.7238 41.359 23.6177 41.2453 23.5798C40.8741 23.4433 40.503 23.2841 40.1318 23.14C40.0484 23.1097 39.9045 23.1173 39.9575 22.9656C39.9727 22.9126 40.0712 22.8822 40.1318 22.8443C40.253 22.7609 40.2757 22.632 40.2151 22.5107C40.056 22.215 40.2227 21.9876 40.3439 21.745C40.3969 21.6312 40.5105 21.6767 40.609 21.654C40.859 21.6009 40.9575 21.3734 40.7605 21.237C40.556 21.0929 40.5257 20.9716 40.5863 20.7441C40.6848 20.3347 40.7529 19.9101 40.8363 19.4931C41.0181 19.0534 40.806 18.5833 40.9575 18.1436C41.0408 18.0071 41.1696 17.9388 41.3059 17.8706C41.4196 17.8175 41.5559 17.7569 41.7074 17.8327Z" fill="#FDFDFD"/>
<path d="M39.1471 41.329C38.632 41.5186 38.1547 41.8218 37.5714 41.7915C37.4881 41.7839 37.382 41.8597 37.3139 41.9204C37.1927 42.0265 37.0563 42.072 36.9048 42.1024C36.7685 42.1251 36.6472 42.1251 36.5942 41.9735C36.5488 41.837 36.4579 41.7612 36.3139 41.7839C36.117 41.8218 36.1018 41.9659 36.117 42.1327C36.1321 42.2919 36.0488 42.3601 35.9049 42.3905C34.9655 42.5876 34.0338 42.7999 33.0945 42.9895C32.8521 43.0349 32.5945 43.0577 32.3445 43.0349C32.1627 43.0198 32.0112 43.0046 31.8445 43.1032C31.7461 43.1638 31.6097 43.1714 31.4809 43.1866C31.4128 43.1942 31.337 43.1563 31.2764 43.1259C31.2613 43.1183 31.2916 43.0349 31.3067 42.9895C31.3143 42.9667 31.337 42.944 31.3522 42.9288C31.9279 42.1251 32.3975 41.2608 32.7384 40.3358C32.8218 40.1235 32.9354 40.0931 33.1399 40.1841C33.4126 40.313 33.6853 40.4419 33.9732 40.5405C34.155 40.6011 34.261 40.6845 34.3065 40.8893C34.3444 41.0636 34.5413 41.147 34.655 41.0333C34.8519 40.8286 35.064 40.8438 35.2837 40.912C35.9427 41.1167 36.6169 41.1243 37.2911 41.1622C37.6396 41.185 37.9956 41.1622 38.3517 41.1622C38.6244 41.1622 38.9577 40.9044 39.1471 41.329Z" fill="#FCFCFC"/>
<path d="M29.5944 7.11179C29.5792 7.91547 28.8823 8.59026 28.0793 8.57509C27.2839 8.55993 26.5794 7.83965 26.6022 7.05871C26.6249 6.26261 27.3521 5.56508 28.1324 5.58782C28.9353 5.61057 29.6095 6.3081 29.5944 7.11179Z" fill="#FDFDFD"/>
<path d="M48.4416 18.1965C49.2597 18.2648 49.9036 19.0002 49.8278 19.7812C49.7445 20.6531 49.0249 21.2521 48.1765 21.1687C47.3735 21.0853 46.7902 20.3422 46.8735 19.5234C46.9493 18.7652 47.6992 18.1283 48.4416 18.1965Z" fill="#FEFEFE"/>
<path d="M29.4963 49.0019C29.5341 49.7525 28.9963 50.4652 28.0645 50.5334C27.2843 50.5941 26.5722 49.8814 26.5571 49.0701C26.5419 48.2361 27.1783 47.5689 27.9964 47.5537C28.8145 47.5386 29.4811 48.1755 29.4963 49.0019Z" fill="#FDFDFD"/>
<path d="M8.06574 27.818C8.05059 28.6141 7.33852 29.3192 6.55827 29.3041C5.76287 29.2889 5.05838 28.5838 5.0811 27.7877C5.1114 26.7944 5.9674 26.3016 6.58857 26.3092C7.27034 26.3168 8.05059 26.9006 8.06574 27.818Z" fill="#FDFDFD"/>
<path d="M48.3356 38.0385C47.5099 38.0688 46.8509 37.3182 46.8585 36.5524C46.866 35.7866 47.5327 35.0663 48.3583 35.0891C49.1689 35.1118 49.8507 35.7866 49.8355 36.5827C49.8204 37.4167 49.1689 38.046 48.3356 38.0385Z" fill="#FEFEFE"/>
<path d="M41.1619 18.1056C41.0331 18.1511 40.9725 18.2421 40.9725 18.3862C40.9725 18.6818 40.9725 18.9775 40.9725 19.2732C40.9725 19.3794 40.927 19.4552 40.8286 19.5007C40.7982 18.6515 40.8967 17.8023 40.7301 16.9532C40.7225 16.9001 40.7907 16.8319 40.8286 16.7712C40.9119 16.6802 40.9119 16.5741 40.8589 16.4679C40.7907 16.3845 40.7225 16.3011 40.6543 16.2177C40.6089 16.104 40.6164 15.9675 40.5407 15.8614C40.5255 15.7856 40.5104 15.7097 40.4952 15.6339C40.4952 15.5354 40.4422 15.4671 40.3589 15.414V15.4216C40.3437 15.1411 40.4877 15.1638 40.6695 15.2624C40.7149 15.3003 40.7528 15.3534 40.7831 15.4065C40.7983 15.452 40.8134 15.4974 40.8286 15.5429C40.9119 15.6339 40.874 15.778 40.9649 15.8614C40.9876 15.8841 41.0028 15.9145 40.9952 15.9524C40.9952 16.0358 41.0558 16.0964 41.1013 16.1647C41.3588 16.703 41.5937 17.2489 41.7149 17.8403C41.624 17.8933 41.5331 17.9388 41.4421 17.9919C41.2603 17.8327 41.1846 17.9085 41.1619 18.1056Z" fill="#E7E7E7"/>
<path d="M13.7017 31.9274C13.6184 31.9502 13.5502 31.9956 13.5351 32.0942C13.3533 32.2534 13.3987 32.4051 13.5426 32.5491C13.5123 32.587 13.4896 32.6553 13.4593 32.6553C13.0806 32.6553 13.0654 32.9131 13.0578 33.186C12.8684 32.6477 12.8154 32.0866 12.7775 31.5256C12.77 31.4118 12.876 31.3588 12.9745 31.427C13.2245 31.5862 13.4669 31.7606 13.7017 31.9274Z" fill="#DADADA"/>
<path d="M14.9215 16.1647C14.9897 15.8159 15.1185 15.4899 15.3533 15.2094C15.4215 15.179 15.4821 15.1942 15.5275 15.2473C15.5124 15.3003 15.5199 15.3458 15.5427 15.3913C15.573 15.452 15.6108 15.5126 15.6411 15.5733C15.6866 15.596 15.7017 15.6264 15.6866 15.6491C15.6714 15.6719 15.6563 15.687 15.6411 15.687C15.5351 15.7704 15.5351 15.8917 15.5124 16.013C15.4366 16.3087 15.4366 16.3012 15.0654 16.3087C14.9897 16.2784 14.9442 16.2329 14.9215 16.1647Z" fill="#DFDFDF"/>
<path d="M23.239 15.8538C23.2087 15.7704 23.2466 15.6566 23.1254 15.6263C23.0572 15.6111 22.9815 15.6263 22.9209 15.596C22.7694 15.5202 22.7315 15.3609 22.7997 15.2245C22.8678 15.1032 22.9815 15.0728 23.1102 15.088C23.436 15.1335 23.436 15.1335 23.542 15.0804C23.489 15.3837 23.3678 15.7021 23.239 15.8538Z" fill="#2E2E2E"/>
<path d="M16.0729 23.1097C16.0881 23.0338 16.1335 22.958 16.1184 22.8974C16.0957 22.8216 16.0123 22.8216 15.9366 22.8595C15.8911 22.8822 15.8457 22.905 15.7926 22.905C15.6487 22.9201 15.5502 22.8367 15.5124 22.7154C15.4745 22.5865 15.5048 22.4576 15.6411 22.397C15.732 22.3591 15.8381 22.3515 15.9366 22.3287C16.0426 22.488 16.179 22.6396 16.2547 22.814C16.3153 22.9504 16.3002 23.1248 16.0729 23.1097Z" fill="#2C2C2C"/>
<path d="M39.147 41.329C39.1091 41.2229 39.041 41.185 38.9349 41.185C38.7455 41.185 38.5486 41.1698 38.3592 41.1622C38.4274 41.1319 38.488 41.0788 38.5561 41.0712C39.0637 41.0106 39.5788 41.0333 40.0636 40.8665C40.1091 40.9044 40.1242 40.9423 40.1015 40.9727C40.0864 41.003 40.0636 41.0257 40.0485 41.0257C39.7303 41.0788 39.4803 41.329 39.147 41.329Z" fill="#C6C6C6"/>
<path d="M21.5725 15.7173C21.7694 15.6111 21.5649 15.5202 21.5649 15.4216C21.5573 15.2851 21.58 15.1714 21.7164 15.1183C21.8452 15.0652 21.9588 15.088 22.0497 15.2017C22.1179 15.2927 22.1179 15.3761 22.0648 15.4747C21.9967 15.5884 21.8073 15.6566 21.9058 15.8462C21.7694 15.8689 21.6331 15.8917 21.5725 15.7173Z" fill="#262626"/>
<path d="M42.1468 19.0988C42.0635 19.1443 41.9802 19.205 41.8893 19.2429C41.7529 19.296 41.6469 19.2353 41.5787 19.114C41.5029 18.9775 41.556 18.8107 41.7151 18.7425C41.8211 18.697 41.9726 18.7349 42.0256 18.5833C42.2908 18.7046 42.1544 18.9169 42.1468 19.0988Z" fill="#212121"/>
<path d="M23.5118 14.3677C23.3452 14.2691 23.3452 14.1175 23.4285 13.981C23.5043 13.8673 23.6558 13.8218 23.7542 13.9052C23.9133 14.0416 24.0194 13.9582 24.1481 13.8824C24.1709 14.1326 24.0421 14.2615 23.8224 14.3373C23.7315 14.4283 23.6179 14.4207 23.5118 14.3677Z" fill="#282828"/>
<path d="M13.5653 35.8397C13.7092 35.7942 13.8456 35.7411 13.9895 35.7108C14.088 35.688 14.2471 35.8473 14.2395 35.9458C14.2319 36.0444 14.1941 36.1354 14.0956 36.196C13.9744 36.2718 13.785 36.143 13.7017 36.3325C13.4441 36.2188 13.5577 36.0141 13.5653 35.8397Z" fill="#282828"/>
<path d="M21.3147 40.4419C21.3677 40.5253 21.4283 40.6087 21.4662 40.6997C21.5344 40.8589 21.4586 41.0106 21.3147 41.0561C21.1632 41.1016 21.0193 41.0409 20.9738 40.8665C20.9435 40.7528 20.9738 40.6163 20.8223 40.5632C20.936 40.3282 21.1329 40.4419 21.3147 40.4419Z" fill="#252525"/>
<path d="M33.8443 15.8538C33.8746 15.7628 33.9049 15.6643 33.8064 15.596C33.7231 15.5354 33.6776 15.452 33.6776 15.3534C33.6852 15.2169 33.7534 15.1335 33.8897 15.1032C34.0109 15.0804 34.117 15.179 34.17 15.2776C34.2609 15.4444 33.973 15.5657 34.1397 15.7249C34.1018 15.8841 33.973 15.869 33.8443 15.8538Z" fill="#1B1B1B"/>
<path d="M37.1924 13.928C37.2227 14.0493 37.2454 14.1706 37.1772 14.2844C37.1242 14.3829 37.0257 14.4284 36.9348 14.4133C36.8136 14.3905 36.6924 14.3147 36.7076 14.1706C36.7227 14.0266 36.7833 13.8901 36.8212 13.7536C36.9879 13.7233 37.1469 13.7157 37.1924 13.928Z" fill="#242424"/>
<path d="M15.3454 40.5784C15.4363 40.5557 15.4969 40.5026 15.5196 40.404C15.6863 40.4571 15.8605 40.5026 16.0196 40.5632C16.1711 40.6239 16.1256 40.768 16.1181 40.8893C16.1181 40.9196 16.0499 40.9878 16.0272 40.9803C15.7848 40.8817 15.4818 40.8817 15.3454 40.5784Z" fill="#D3D3D3"/>
<path d="M13.2397 22.8292C13.1488 22.8444 13.0503 22.8595 12.9594 22.8823C12.9518 22.7382 12.9443 22.5942 12.9367 22.4501C12.9291 22.344 12.9821 22.2681 13.0806 22.2302C13.1185 22.3212 13.1791 22.3743 13.2927 22.3667C13.4139 22.3591 13.5276 22.3743 13.5427 22.5335C13.4518 22.6396 13.3457 22.7306 13.2397 22.8292Z" fill="#282828"/>
<path d="M40.6619 15.2548C40.5332 15.2548 40.3892 15.2396 40.3514 15.414C40.1923 15.323 40.162 15.0425 39.9044 15.088C39.912 15.0349 39.912 14.9818 39.9196 14.9288C40.1999 14.9439 40.4498 15.0501 40.6619 15.2548Z" fill="#E0E0E0"/>
<path d="M43.0709 24.0725C42.9118 24.0953 42.783 24.0574 42.7678 23.8754C42.7527 23.6631 42.8815 23.5873 43.0709 23.5721C43.2148 23.7389 43.1996 23.9057 43.0709 24.0725Z" fill="#171717"/>
<path d="M1.10425 25.5434C1.11183 25.6875 1.12698 25.824 1.12698 25.968C1.12698 26.0742 1.17243 26.1424 1.27091 26.1727C1.26334 26.2789 1.20273 26.3547 1.11183 26.4078C1.08152 26.4229 0.990619 26.4078 0.990619 26.4002C0.983043 26.1045 0.899713 25.8088 1.10425 25.5434Z" fill="#119A9D"/>
<path d="M30.2309 0.970499C30.14 0.978081 30.0491 1.00083 29.9506 1.00083C29.8446 1.00083 29.7764 1.04632 29.7461 1.15246C29.64 1.14488 29.5643 1.08423 29.5188 0.993245C29.5037 0.962917 29.5264 0.879516 29.534 0.879516C29.7764 0.85677 30.0264 0.773369 30.2309 0.970499Z" fill="#119497"/>
<path d="M29.6024 54.8324C29.6251 54.9385 29.6933 54.9688 29.7917 54.9764C29.8826 54.9764 29.966 54.9992 30.0569 55.0067C29.8675 55.2494 29.6175 55.1129 29.3902 55.1053C29.3827 55.1053 29.3599 55.0219 29.3751 54.9916C29.4281 54.9006 29.4963 54.8324 29.6024 54.8324Z" fill="#0B4547"/>
<path d="M26.2691 1.14489C26.2387 1.04632 26.1706 1.00083 26.0645 1.00083C25.9736 1.00083 25.8827 0.978084 25.7918 0.970502C25.966 0.765791 26.2084 0.879519 26.413 0.849192C26.4433 0.84161 26.5039 0.894683 26.5039 0.917429C26.5039 0.96292 26.4812 1.01599 26.4509 1.04632C26.3978 1.09181 26.3297 1.11456 26.2691 1.14489Z" fill="#118D90"/>
<path d="M14.9213 16.1646C15.0046 16.1798 15.0501 16.2253 15.0576 16.3087C14.9213 16.43 14.8834 16.5816 14.9289 16.756C14.8531 16.7484 14.7774 16.7484 14.7016 16.7409C14.7395 16.5362 14.7925 16.339 14.9213 16.1646Z" fill="#F4F4F4"/>
<path d="M35.6851 20.4105C35.6397 20.547 35.5563 20.6607 35.4275 20.7214C35.3366 20.7062 35.2533 20.6987 35.1624 20.6835C35.223 20.5318 35.3518 20.4636 35.4881 20.3954C35.5639 20.3423 35.6245 20.3499 35.6851 20.4105Z" fill="#2C2C2C"/>
<path d="M16.5652 28.0076C16.3683 28.0455 16.1865 28.0076 15.9819 27.9242C16.1865 27.818 16.3834 27.8104 16.5804 27.8483C16.5728 27.9014 16.5652 27.9545 16.5652 28.0076Z" fill="#3A3A3A"/>
<path d="M39.5941 27.8484C39.7759 27.8256 39.9577 27.7877 40.1092 27.9318C39.9501 28.0228 39.7834 28.038 39.6016 28C39.6092 27.9545 39.6016 27.9015 39.5941 27.8484Z" fill="#494949"/>
<path d="M35.3442 35.4834C35.2306 35.4379 35.1246 35.3924 35.0791 35.2635C35.17 35.2408 35.2079 35.1726 35.223 35.0816C35.3139 35.1043 35.3594 35.165 35.367 35.256C35.4352 35.3394 35.4276 35.4152 35.3442 35.4834Z" fill="#080808"/>
<path d="M16.2546 15.5429C16.3758 15.3988 16.5501 15.414 16.7092 15.3761C16.641 15.6642 16.4213 15.5429 16.2546 15.5429Z" fill="#3A3A3A"/>
<path d="M40.6391 39.7671C40.6467 39.9491 40.7679 40.1538 40.5179 40.2751C40.5028 40.0931 40.4952 39.9112 40.6391 39.7671Z" fill="#DEDEDE"/>
<path d="M40.5106 40.4192C40.6091 40.4192 40.7 40.4192 40.7985 40.4192C40.753 40.6466 40.5863 40.5708 40.4651 40.5253C40.4121 40.5102 40.4424 40.4419 40.5106 40.4192Z" fill="#DEDEDE"/>
<path d="M40.0486 41.0181C40.0486 40.965 40.0562 40.912 40.0562 40.8589C40.0713 40.7755 40.1319 40.7452 40.2152 40.7376C40.238 40.7376 40.2607 40.7452 40.2834 40.7603C40.3364 40.7906 40.3364 40.8286 40.291 40.8816C40.2228 40.965 40.1622 41.0333 40.0486 41.0181Z" fill="#686868"/>
<path d="M15.9515 42.0948C15.8455 42.0493 15.7849 41.9431 15.8455 41.8673C15.944 41.7384 16.05 41.8067 16.1258 41.928L16.1182 41.9886C16.0652 42.0038 16.0273 42.0341 16.0121 42.0872L15.9515 42.0948Z" fill="#16A7AB"/>
<path d="M40.0637 42.0947C40.041 42.0038 39.9804 41.9507 39.8971 41.9204C39.9728 41.7991 40.0789 41.7308 40.1774 41.8673C40.238 41.9583 40.1698 42.0492 40.0637 42.0947Z" fill="#128284"/>
<path d="M23.5117 14.3677C23.6178 14.3601 23.7238 14.3526 23.8299 14.3374C23.8602 14.4663 23.8526 14.58 23.7087 14.6407C23.6405 14.5573 23.5799 14.4663 23.5117 14.3677Z" fill="#707070"/>
<path d="M15.9668 15.2473C16.1031 15.3004 16.0804 15.4444 16.1334 15.543C15.8986 15.5506 15.9592 15.3838 15.9668 15.2473Z" fill="#3A3A3A"/>
<path d="M20.8605 35.2938C20.8377 35.3772 20.7771 35.4227 20.6938 35.4378C20.6105 35.4909 20.5347 35.4833 20.4666 35.4075C20.4893 35.3317 20.5196 35.2635 20.6105 35.2483C20.6938 35.2635 20.7771 35.2786 20.8605 35.2938Z" fill="#191919"/>
<path d="M40.0559 14.019C40.0635 13.9659 40.0711 13.9128 40.0786 13.8597C40.1165 13.9052 40.1695 13.9507 40.1923 14.0114C40.1998 14.0341 40.162 14.0796 40.1392 14.1175C40.1089 14.0872 40.0862 14.0569 40.0559 14.019Z" fill="#149EA1"/>
<path d="M40.9576 15.8537C40.7833 15.8006 40.8136 15.6642 40.8212 15.5353C40.9273 15.6187 40.9727 15.7248 40.9576 15.8537Z" fill="#E0E0E0"/>
<path d="M43.0634 23.5798C43.0785 23.4812 43.0861 23.3826 43.1012 23.2917C43.2906 23.4509 43.283 23.4888 43.0634 23.5798Z" fill="#171717"/>
<path d="M40.5332 15.8614C40.715 15.9372 40.662 16.0813 40.6468 16.2178C40.5257 16.1192 40.5105 15.9979 40.5332 15.8614Z" fill="#E0E0E0"/>
<path d="M40.8514 16.4679C41.0029 16.6347 41.0029 16.6347 40.8211 16.7712C40.8287 16.6651 40.8363 16.5665 40.8514 16.4679Z" fill="#E0E0E0"/>
<path d="M20.3603 20.5622C20.4285 20.5925 20.4891 20.638 20.4891 20.729L20.4361 20.7441L20.383 20.7138C20.2618 20.7366 20.2164 20.6759 20.2088 20.5622C20.2618 20.5015 20.3149 20.5015 20.3603 20.5622Z" fill="#616161"/>
<path d="M15.5274 15.2472C15.4668 15.2321 15.4062 15.2245 15.3531 15.2093C15.4138 15.0577 15.5425 15.0956 15.6637 15.0956L15.6713 15.1032C15.6637 15.1866 15.6183 15.2396 15.5274 15.2472Z" fill="#3A3A3A"/>
<path d="M31.1173 12.8286C31.0719 12.7831 30.9961 12.7376 31.1097 12.6997C31.2082 12.6694 31.2764 12.6997 31.2612 12.821C31.2158 12.8741 31.1703 12.8741 31.1173 12.8286Z" fill="#C2C2C2"/>
<path d="M31.1173 12.8286C31.1628 12.8286 31.2158 12.821 31.2612 12.821C31.2461 12.859 31.2461 12.9272 31.2234 12.9348C31.14 12.9575 31.1249 12.8893 31.1173 12.8286Z" fill="#7D7D7D"/>
<path d="M15.8607 14.9818C15.8607 15.0122 15.8531 15.0501 15.8455 15.0804C15.7849 15.088 15.7319 15.0956 15.6713 15.1107L15.6637 15.1031C15.6864 14.9894 15.7546 14.9515 15.8607 14.9818Z" fill="#3A3A3A"/>
<path d="M40.8362 40.3207C40.8059 40.2221 40.8362 40.1539 40.9347 40.1235C40.9574 40.2145 40.9271 40.2752 40.8362 40.3207Z" fill="#DEDEDE"/>
<path d="M40.9725 39.987C40.9725 39.9264 40.9725 39.8657 40.9649 39.8051C41.0937 39.8657 41.0861 39.9264 40.9725 39.987Z" fill="#DEDEDE"/>
<path d="M15.8382 15.0728C15.9442 15.0879 15.9745 15.1486 15.9669 15.2472C15.8685 15.232 15.8154 15.1865 15.8382 15.0728Z" fill="#3A3A3A"/>
<path d="M41.0937 16.157C40.9952 16.1191 40.9649 16.0433 40.9876 15.9447C41.0634 15.9978 41.1088 16.066 41.0937 16.157Z" fill="#E0E0E0"/>
<path d="M40.0331 13.746C39.9422 13.7157 39.9043 13.655 39.927 13.564C40.0103 13.5944 40.0482 13.6474 40.0331 13.746Z" fill="#149EA1"/>
<path d="M15.6411 15.6946C15.6335 15.6567 15.6335 15.6188 15.6411 15.5808C15.6789 15.5884 15.7471 15.596 15.7547 15.6188C15.7699 15.6946 15.6941 15.687 15.6411 15.6946Z" fill="#3A3A3A"/>
<path d="M40.3516 15.4065C40.4804 15.4292 40.5107 15.5126 40.488 15.6264C40.4047 15.5733 40.3592 15.5051 40.3516 15.4065Z" fill="#E0E0E0"/>
<path d="M39.7227 13.9128C39.8136 13.8825 39.8742 13.9204 39.9121 14.0114C39.8212 14.0341 39.7606 13.9886 39.7227 13.9128Z" fill="#149EA1"/>
<path d="M42.48 34.9679C42.427 34.9603 42.3815 34.9527 42.3285 34.9527C42.3588 34.9224 42.3815 34.8845 42.4118 34.8541C42.4345 34.8845 42.4573 34.9224 42.48 34.9679Z" fill="black"/>
<path d="M15.641 15.5733C15.5426 15.5505 15.5123 15.4899 15.5426 15.3913C15.6259 15.4292 15.6638 15.4823 15.641 15.5733Z" fill="#3A3A3A"/>
<path d="M40.7758 15.3989C40.7 15.3837 40.6697 15.3307 40.6621 15.2549C40.7455 15.2624 40.7909 15.3079 40.7758 15.3989Z" fill="#E0E0E0"/>
<path d="M20.4665 35.4075C20.5422 35.4151 20.618 35.4302 20.6938 35.4378C20.671 35.5212 20.6104 35.5667 20.5347 35.5895C20.4589 35.6501 20.3907 35.6426 20.3301 35.5667C20.3453 35.4909 20.3832 35.4227 20.4665 35.4075Z" fill="#373737"/>
<path d="M20.33 35.5668C20.3982 35.5744 20.4664 35.5819 20.5346 35.5895C20.4815 35.6426 20.4285 35.6881 20.3755 35.7412C20.3073 35.7866 20.2543 35.7791 20.1937 35.726C20.2012 35.635 20.2391 35.5744 20.33 35.5668Z" fill="#656565"/>
<path d="M20.1937 35.726C20.2543 35.7336 20.3149 35.7336 20.3756 35.7412C20.3225 35.7867 20.2771 35.8397 20.2165 35.8625C20.1937 35.8701 20.1407 35.8322 20.1028 35.8094C20.1331 35.7791 20.1634 35.7563 20.1937 35.726Z" fill="#A5A5A5"/>
<path d="M35.685 20.4105C35.6244 20.403 35.5562 20.403 35.4956 20.3954C35.5183 20.312 35.5714 20.2665 35.6471 20.2362C35.7153 20.1907 35.7683 20.1982 35.8213 20.2589C35.8138 20.3423 35.7835 20.403 35.685 20.4105Z" fill="#696969"/>
<path d="M35.8216 20.2513C35.761 20.2437 35.7004 20.2361 35.6473 20.2285C35.7004 20.183 35.7458 20.1375 35.8064 20.1072C35.8291 20.0996 35.8822 20.1375 35.9125 20.1603C35.8897 20.1982 35.8519 20.2285 35.8216 20.2513Z" fill="#ABABAB"/>
<path d="M35.3442 35.4833C35.3518 35.4075 35.3593 35.3317 35.3669 35.2559C35.4502 35.2786 35.4957 35.3393 35.5108 35.4227C35.5866 35.4833 35.579 35.5516 35.5032 35.6046C35.4199 35.597 35.3593 35.5743 35.3442 35.4833Z" fill="#171717"/>
<path d="M35.5034 35.6047C35.5034 35.544 35.511 35.4834 35.511 35.4227C35.5943 35.4455 35.6398 35.4985 35.6549 35.5819C35.7004 35.6123 35.7155 35.6502 35.7004 35.6805C35.6852 35.7184 35.6701 35.7336 35.6549 35.7336C35.5716 35.7336 35.511 35.7033 35.5034 35.6047Z" fill="#363636"/>
<path d="M35.6623 35.726C35.6472 35.6729 35.6472 35.6274 35.6548 35.5743C35.7078 35.6198 35.7608 35.6653 35.8138 35.7184C35.8517 35.7563 35.8669 35.7866 35.8517 35.8245C35.8366 35.8549 35.8214 35.87 35.8063 35.87C35.7229 35.87 35.6623 35.8321 35.6623 35.726Z" fill="#6E6E6E"/>
<path d="M35.8139 35.8701C35.8139 35.817 35.8139 35.7715 35.8215 35.7184C35.8972 35.7336 35.9503 35.7867 35.9578 35.8625C35.9578 35.9004 35.92 35.9307 35.9048 35.9686C35.8669 35.9383 35.8442 35.908 35.8139 35.8701Z" fill="#D6D6D6"/>
<path d="M20.3604 20.5622L20.2846 20.5698L20.2089 20.5622C20.171 20.5319 20.1407 20.5091 20.1028 20.4788C20.1407 20.4561 20.1786 20.4181 20.2089 20.4257C20.2922 20.4257 20.3452 20.4788 20.3604 20.5622Z" fill="#B8B8B8"/>
<path d="M16.0121 42.0872C15.9818 41.9886 16.0197 41.9582 16.1182 41.9886C16.0803 42.0189 16.0424 42.0493 16.0121 42.0872Z" fill="#18EAEF"/>
<path d="M42.6619 32.3596C42.6392 32.5036 42.5482 32.5719 42.4119 32.5719C42.2528 32.5794 42.1392 32.443 42.1619 32.2913C42.1846 32.1548 42.2755 32.079 42.4119 32.0714C42.5634 32.0639 42.677 32.2003 42.6619 32.3596Z" fill="#161616"/>
<path d="M41.7906 33.7926C41.6315 33.785 41.5255 33.6562 41.5558 33.4969C41.5785 33.3529 41.677 33.2922 41.8133 33.2922C41.9724 33.2922 42.0709 33.4287 42.0482 33.5879C42.033 33.7016 41.9194 33.8002 41.7906 33.7926Z" fill="#161616"/>
<path d="M42.0558 35.9383C42.0558 36.0672 42.0104 36.1733 41.8664 36.2036C41.6998 36.234 41.5635 36.143 41.5559 35.9838C41.5483 35.8549 41.6013 35.7487 41.7452 35.7184C41.9043 35.6881 42.0406 35.7791 42.0558 35.9383Z" fill="#161616"/>
<path d="M40.806 33.5955C40.6621 33.7775 40.5333 33.823 40.4197 33.7092C40.3212 33.6107 40.3212 33.4894 40.4045 33.3756C40.4954 33.2467 40.6242 33.2695 40.7909 33.4439C40.753 33.5045 40.753 33.55 40.806 33.5955Z" fill="#050505"/>
<path d="M41.1164 34.9526C40.9421 34.9374 40.9421 34.8161 40.9573 34.6948C40.9724 34.5887 41.033 34.5128 41.1467 34.5053C41.2679 34.4901 41.3967 34.4901 41.4043 34.6645C41.3058 34.7631 41.2149 34.8616 41.1164 34.9526Z" fill="#1F1F1F"/>
<path d="M41.4045 37.0907C41.4045 37.1438 41.412 37.1893 41.412 37.2424C41.3666 37.2954 41.3211 37.3409 41.2681 37.3864C41.2151 37.3864 41.1696 37.3864 41.1166 37.3788C41.0105 37.2424 41.0105 37.0983 41.1166 36.9618C41.162 36.9618 41.2151 36.9618 41.2605 36.9543C41.3211 36.9922 41.3666 37.0377 41.4045 37.0907Z" fill="black"/>
<path d="M41.1166 34.9526C41.1469 34.6948 41.1469 34.6948 41.3969 34.6569C41.3969 34.71 41.4044 34.7555 41.4044 34.8086C41.359 34.8616 41.306 34.9071 41.2605 34.9602C41.2151 34.9602 41.1696 34.9602 41.1166 34.9526Z" fill="black"/>
<path d="M41.1243 36.9618C41.1243 37.0983 41.1243 37.2424 41.1243 37.3789C40.8894 37.2424 40.8894 37.1059 41.1243 36.9618Z" fill="#1E1E1E"/>
<path d="M40.8058 33.5955C40.677 33.5576 40.6467 33.5121 40.7982 33.4514C40.8134 33.4818 40.8285 33.5121 40.8285 33.55C40.8285 33.5652 40.8134 33.5803 40.8058 33.5955Z" fill="black"/>
<path d="M41.2681 37.3864C41.2756 37.303 41.3211 37.25 41.412 37.2424C41.4347 37.3561 41.3817 37.4016 41.2681 37.3864Z" fill="#1E1E1E"/>
<path d="M41.4044 37.0907C41.3287 37.0832 41.2832 37.0377 41.2681 36.9618C41.3741 36.9391 41.4196 36.977 41.4044 37.0907Z" fill="#1E1E1E"/>
<path d="M41.2681 34.9602C41.2832 34.8768 41.3287 34.8237 41.412 34.8086C41.4347 34.9299 41.3817 34.9754 41.2681 34.9602Z" fill="#1F1F1F"/>
<path d="M19.9739 13.8749C20.1102 13.8597 20.292 13.9962 20.292 14.1175C20.2996 14.254 20.1481 14.4132 20.0117 14.4132C19.8754 14.4132 19.7845 14.3298 19.7466 14.2009C19.7087 14.0568 19.8224 13.8976 19.9739 13.8749Z" fill="#2E2E2E"/>
<path d="M21.2088 14.4284C21.0649 14.4284 20.9361 14.2768 20.9513 14.1176C20.9664 13.9811 21.0498 13.8901 21.1937 13.8749C21.3528 13.8598 21.5043 13.9887 21.4967 14.1327C21.4967 14.2768 21.3452 14.4284 21.2088 14.4284Z" fill="#2D2D2D"/>
<path d="M22.4209 14.4283C22.277 14.4283 22.1482 14.2767 22.1633 14.125C22.1785 13.9886 22.2618 13.8976 22.4057 13.89C22.5648 13.8748 22.7163 14.0037 22.7087 14.1402C22.7087 14.2767 22.5648 14.4283 22.4209 14.4283Z" fill="#2D2D2D"/>
<path d="M34.5108 13.8825C34.6396 13.8673 34.7608 13.9583 34.7835 14.0796C34.8138 14.2312 34.7002 14.4056 34.5563 14.4132C34.4199 14.4208 34.3215 14.3449 34.2836 14.2085C34.2457 14.0644 34.3518 13.9052 34.5108 13.8825Z" fill="#252525"/>
<path d="M33.1019 14.1857C33.1095 14.1402 33.1171 14.0947 33.1171 14.0492C33.2534 13.9279 33.3898 13.9355 33.5261 14.0416C33.5867 14.1857 33.5943 14.307 33.4049 14.3525C33.3443 14.3904 33.2837 14.3828 33.2307 14.3449C33.1928 14.2919 33.1474 14.2388 33.1019 14.1857Z" fill="#010101"/>
<path d="M35.9501 14.0417C36.0107 14.1858 36.0183 14.3071 35.8365 14.3526C35.7759 14.3905 35.7153 14.3829 35.6622 14.345C35.6168 14.2919 35.5713 14.2388 35.5259 14.1858C35.5335 14.1403 35.541 14.0948 35.5486 14.0417C35.6774 13.928 35.8138 13.9356 35.9501 14.0417Z" fill="#010101"/>
<path d="M35.9504 14.0417C35.8141 14.0417 35.6777 14.0417 35.5414 14.0493C35.6853 13.8218 35.8141 13.8218 35.9504 14.0417Z" fill="#2E2E2E"/>
<path d="M33.5263 14.0417C33.3899 14.0417 33.2535 14.0417 33.1172 14.0493C33.2611 13.8218 33.3899 13.8218 33.5263 14.0417Z" fill="#2F2F2F"/>
<path d="M35.6549 14.345C35.7155 14.345 35.7761 14.3526 35.8291 14.3526C35.7685 14.4663 35.7079 14.4739 35.6549 14.345Z" fill="#2E2E2E"/>
<path d="M33.2382 14.345C33.2988 14.345 33.3594 14.3526 33.4125 14.3526C33.3443 14.4663 33.2837 14.4739 33.2382 14.345Z" fill="#2F2F2F"/>
<path d="M35.526 14.1858C35.6093 14.2085 35.6548 14.254 35.6624 14.345C35.5411 14.3526 35.4957 14.2995 35.526 14.1858Z" fill="#2E2E2E"/>
<path d="M33.1019 14.1858C33.1852 14.2085 33.2306 14.2616 33.2382 14.345C33.1246 14.3526 33.0791 14.2995 33.1019 14.1858Z" fill="#2F2F2F"/>
<path d="M22.7011 40.8286C22.6784 40.9802 22.5193 41.0939 22.3602 41.056C22.239 41.0333 22.1481 40.9044 22.1633 40.7755C22.186 40.6163 22.3451 40.5101 22.4966 40.5556C22.633 40.6011 22.7011 40.6997 22.7011 40.8286Z" fill="#212121"/>
<path d="M20.5194 41.8142C20.5649 41.8067 20.6179 41.8067 20.6634 41.7991C20.7164 41.8446 20.7694 41.8901 20.8224 41.9355C20.8527 41.9735 20.8679 42.0114 20.8603 42.0493C20.8527 42.0872 20.8376 42.1099 20.83 42.1099C20.7846 42.2919 20.6634 42.2919 20.5194 42.2313C20.4058 42.0872 20.4058 41.9507 20.5194 41.8142Z" fill="#010101"/>
<path d="M22.0344 42.1024C21.9889 42.2919 21.8753 42.2919 21.7313 42.2313C21.6253 42.0948 21.6253 41.9507 21.7313 41.8142C21.7768 41.8067 21.8298 41.8067 21.8753 41.7991C21.9283 41.8446 21.9813 41.8901 22.0268 41.9355C22.0571 41.9735 22.0722 42.0038 22.0647 42.0417C22.0571 42.0872 22.0419 42.1024 22.0344 42.1024Z" fill="#010101"/>
<path d="M23.2466 42.1024C23.2011 42.2919 23.0875 42.2919 22.9436 42.2313C22.8375 42.0948 22.8375 41.9507 22.9436 41.8142C22.989 41.8067 23.042 41.8067 23.0875 41.7991C23.1405 41.8446 23.1935 41.8901 23.239 41.9355C23.2693 41.9735 23.2844 42.0038 23.2769 42.0417C23.2693 42.0872 23.2541 42.1024 23.2466 42.1024Z" fill="#010101"/>
<path d="M20.5194 41.8142C20.5194 41.9507 20.5194 42.0872 20.5194 42.2312C20.2922 42.0872 20.2922 41.9583 20.5194 41.8142Z" fill="#2B2B2B"/>
<path d="M21.7315 41.8142C21.7315 41.9507 21.7315 42.0872 21.7315 42.2312C21.5042 42.0872 21.5042 41.9583 21.7315 41.8142Z" fill="#2B2B2B"/>
<path d="M22.9434 41.8142C22.9434 41.9507 22.9434 42.0948 22.9434 42.2312C22.7161 42.0872 22.7161 41.9583 22.9434 41.8142Z" fill="#2B2B2B"/>
<path d="M20.815 41.9356C20.7317 41.928 20.6787 41.8825 20.6559 41.7991C20.7771 41.7763 20.8302 41.8218 20.815 41.9356Z" fill="#2B2B2B"/>
<path d="M22.027 41.9356C21.9437 41.928 21.8906 41.8825 21.8755 41.7991C21.9891 41.7763 22.0421 41.8218 22.027 41.9356Z" fill="#2B2B2B"/>
<path d="M23.239 41.9356C23.1557 41.928 23.1027 41.8825 23.0875 41.7991C23.2012 41.7763 23.2542 41.8218 23.239 41.9356Z" fill="#2B2B2B"/>
<path d="M20.8226 42.1023C20.8226 42.0493 20.8226 41.9886 20.815 41.9355C20.9438 41.9886 20.9362 42.0417 20.8226 42.1023Z" fill="#2B2B2B"/>
<path d="M22.0344 42.1023C22.0344 42.0493 22.0344 41.9962 22.0268 41.9355C22.148 41.9886 22.148 42.0417 22.0344 42.1023Z" fill="#2B2B2B"/>
<path d="M23.2465 42.1023C23.2465 42.0493 23.2465 41.9962 23.239 41.9355C23.3602 41.9886 23.3602 42.0417 23.2465 42.1023Z" fill="#2B2B2B"/>
<path d="M13.9594 21.1536C14.1109 21.1612 14.2472 21.3128 14.2245 21.4417C14.2018 21.5857 14.0275 21.7374 13.9063 21.6995C13.7927 21.6616 13.6866 21.5782 13.6866 21.4265C13.6866 21.2597 13.8003 21.146 13.9594 21.1536Z" fill="#2E2E2E"/>
<path d="M15.5122 21.3052C15.4516 21.4113 15.4138 21.5326 15.3304 21.616C15.2471 21.707 15.1259 21.7222 15.0047 21.6312C14.8911 21.5402 14.8759 21.4265 14.9214 21.3052C14.9744 21.1763 15.088 21.1232 15.2168 21.1611C15.3229 21.1914 15.4213 21.2672 15.5274 21.3279L15.5122 21.3052Z" fill="#262626"/>
<path d="M14.8457 22.6017C14.8532 22.7306 14.7017 22.8974 14.5654 22.9125C14.4214 22.9277 14.2851 22.7912 14.2927 22.632C14.2927 22.4879 14.376 22.4045 14.5123 22.3742C14.6411 22.3363 14.8381 22.4804 14.8457 22.6017Z" fill="#2D2D2D"/>
<path d="M14.5882 19.9404C14.7397 19.9555 14.8609 20.1148 14.8306 20.2512C14.7928 20.4029 14.6261 20.5242 14.4973 20.4787C14.3761 20.4332 14.2852 20.3498 14.2928 20.1982C14.3004 20.0389 14.4292 19.9252 14.5882 19.9404Z" fill="#2E2E2E"/>
<path d="M13.2397 22.8292C13.27 22.5562 13.27 22.5562 13.5427 22.5259C13.573 22.5638 13.5881 22.6017 13.5806 22.6472C13.573 22.6927 13.5654 22.7078 13.5578 22.7078C13.5503 22.7988 13.5048 22.8443 13.4139 22.8443C13.3533 22.8822 13.3003 22.8822 13.2397 22.8292Z" fill="black"/>
<path d="M13.5579 22.7078C13.5503 22.6472 13.5503 22.5865 13.5427 22.5259C13.6715 22.579 13.6639 22.6396 13.5579 22.7078Z" fill="#282828"/>
<path d="M13.2473 22.8292C13.3079 22.8367 13.3609 22.8443 13.4215 22.8443C13.3457 22.9505 13.2927 22.9581 13.2473 22.8292Z" fill="#282828"/>
<path d="M13.5503 32.5491C13.4746 32.5567 13.3988 32.5643 13.3306 32.5643C13.1943 32.5491 13.1034 32.4733 13.1034 32.3293C13.1034 32.1928 13.1867 32.1018 13.3231 32.0867C13.3988 32.0791 13.467 32.0942 13.5428 32.0942C13.6337 32.2459 13.6412 32.3975 13.5503 32.5491Z" fill="#242424"/>
<path d="M14.2321 33.5424C14.2321 33.6713 14.0503 33.8154 13.914 33.7926C13.7928 33.7775 13.6791 33.6561 13.6943 33.5348C13.7094 33.3984 13.7852 33.2998 13.9291 33.2846C14.0731 33.2619 14.2397 33.3984 14.2321 33.5424Z" fill="#252525"/>
<path d="M15.4364 33.5576C15.4137 33.7092 15.2546 33.8154 15.0955 33.785C14.9667 33.7623 14.8834 33.6334 14.8986 33.5121C14.9213 33.3529 15.0804 33.2467 15.2319 33.2922C15.3606 33.3301 15.4364 33.4211 15.4364 33.5576Z" fill="#242424"/>
<path d="M14.573 37.4244C14.4139 37.4319 14.2776 37.3182 14.2927 37.1666C14.3003 37.0301 14.376 36.9391 14.5124 36.9088C14.6487 36.8785 14.8154 36.9998 14.8305 37.1362C14.8533 37.2803 14.7245 37.4168 14.573 37.4244Z" fill="#282828"/>
<path d="M14.7701 34.8313C14.717 35.0132 14.6034 35.0132 14.4595 34.945C14.3534 34.8085 14.3459 34.6721 14.4671 34.5356C14.5125 34.528 14.558 34.5204 14.611 34.5204C14.664 34.5583 14.717 34.6038 14.7701 34.6493C14.8004 34.6872 14.8155 34.7251 14.8079 34.763C14.7852 34.8161 14.7776 34.8313 14.7701 34.8313Z" fill="#010101"/>
<path d="M14.4592 34.5432C14.4592 34.6797 14.4592 34.8162 14.4517 34.9526C14.232 34.8086 14.232 34.6873 14.4592 34.5432Z" fill="#2E2E2E"/>
<path d="M14.7623 34.6569C14.6714 34.6569 14.6259 34.6114 14.6032 34.528C14.7168 34.4977 14.7699 34.5432 14.7623 34.6569Z" fill="#2E2E2E"/>
<path d="M14.7698 34.8313C14.7698 34.7707 14.7622 34.71 14.7622 34.6569C14.8834 34.71 14.8758 34.7707 14.7698 34.8313Z" fill="#2E2E2E"/>
<path d="M42.6695 22.6244C42.6619 22.7988 42.5104 22.9353 42.374 22.8974C42.2453 22.8595 42.1619 22.7761 42.1619 22.6244C42.1619 22.4576 42.2983 22.3439 42.4649 22.3742C42.6089 22.397 42.6619 22.5031 42.6695 22.6244Z" fill="#212121"/>
<path d="M41.4575 20.1982C41.4575 20.3422 41.3211 20.4863 41.1924 20.4863C41.0636 20.4787 40.9348 20.3195 40.9499 20.1754C40.9651 20.039 41.0484 19.9631 41.1848 19.9404C41.3287 19.9252 41.4575 20.0465 41.4575 20.1982Z" fill="#212121"/>
<path d="M41.4574 22.6244C41.4574 22.7761 41.3135 22.9353 41.1771 22.905C41.0483 22.8746 40.9499 22.7988 40.9499 22.6472C40.9423 22.4804 41.0635 22.3591 41.2301 22.3742C41.3589 22.3818 41.4574 22.488 41.4574 22.6244Z" fill="#212121"/>
<path d="M41.1618 18.1056C41.1088 18.0601 41.0482 18.0146 40.9951 17.9615C40.9118 17.8554 40.9042 17.7341 40.98 17.6279C41.033 17.5445 41.1315 17.5066 41.23 17.5218C41.3739 17.5445 41.4421 17.6355 41.4497 17.7644C41.4572 17.8326 41.4421 17.9084 41.4345 17.9843C41.3436 18.0222 41.2527 18.0677 41.1618 18.1056Z" fill="#363636"/>
<path d="M41.8361 21.6918C41.6997 21.6918 41.6012 21.6236 41.5634 21.4947C41.5103 21.3431 41.6164 21.1839 41.7755 21.1611C41.9042 21.1384 42.0254 21.2218 42.0557 21.3507C42.086 21.5023 41.9876 21.6691 41.8361 21.6918Z" fill="#212121"/>
<path d="M33.8442 42.2237C33.67 42.0493 33.6472 41.928 33.776 41.837C33.8896 41.7612 34.0033 41.7536 34.1093 41.8522C34.2229 41.9659 34.1775 42.0872 33.9957 42.2313C33.9502 42.1858 33.8972 42.1782 33.8442 42.2237Z" fill="#050505"/>
<path d="M35.0563 42.2237C34.8821 42.0493 34.8518 41.928 34.9881 41.837C35.0942 41.7612 35.2154 41.7536 35.3214 41.8522C35.435 41.9659 35.3972 42.0872 35.2078 42.2388C35.1623 42.1858 35.1093 42.1782 35.0563 42.2237Z" fill="#050505"/>
<path d="M32.6322 42.2237C32.4579 42.0493 32.4352 41.928 32.564 41.837C32.6776 41.7612 32.7912 41.7536 32.8973 41.8522C33.0109 41.9659 32.973 42.0948 32.7837 42.2313C32.7382 42.1858 32.6852 42.1782 32.6322 42.2237Z" fill="#050505"/>
<path d="M33.2458 41.0106C33.0716 41.003 33.0716 40.8741 33.0867 40.7528C33.1019 40.6466 33.1701 40.5784 33.2761 40.5632C33.3973 40.5481 33.5261 40.5557 33.5337 40.7225C33.4428 40.8286 33.3443 40.9196 33.2458 41.0106Z" fill="#202020"/>
<path d="M33.2458 41.0106C33.2761 40.7528 33.2761 40.7528 33.5336 40.7301C33.5336 40.7832 33.5412 40.8287 33.5412 40.8817C33.4882 40.9272 33.4427 40.9803 33.3897 41.0258C33.3443 41.0182 33.2912 41.0182 33.2458 41.0106Z" fill="black"/>
<path d="M33.3898 41.0258C33.405 40.9424 33.458 40.8969 33.5413 40.8817C33.5565 40.9954 33.5034 41.0409 33.3898 41.0258Z" fill="#202020"/>
<path d="M32.6323 42.2236C32.6929 42.0795 32.7383 42.1023 32.7762 42.2312C32.7307 42.2312 32.6853 42.2236 32.6323 42.2236Z" fill="black"/>
<path d="M33.8443 42.2236C33.9049 42.0795 33.9504 42.1023 33.9882 42.2312C33.9428 42.2312 33.8973 42.2236 33.8443 42.2236Z" fill="black"/>
<path d="M35.0563 42.2236C35.1169 42.0795 35.1623 42.1023 35.2002 42.2312C35.1548 42.2312 35.1093 42.2236 35.0563 42.2236Z" fill="black"/>
</svg>
