<svg width="24" height="24" viewBox="0 0 24 24" fill="none" xmlns="http://www.w3.org/2000/svg">
<path fill-rule="evenodd" clip-rule="evenodd" d="M8.18497 0.544998H15.815V3.70293C16.5691 4.07582 17.2238 4.62936 17.7184 5.31867C18.3505 6.19968 18.6888 7.25756 18.685 8.34185V23.455H5.31497V8.36174C5.31121 7.2775 5.64942 6.21965 6.28152 5.33867C6.7761 4.64936 7.43089 4.09582 8.18497 3.72293V0.544998ZM14.8533 4.36H13.905V2.455H10.095V5.04799L9.44238 5.26585C8.79458 5.48211 8.23152 5.89725 7.83339 6.45214C7.43526 7.00703 7.22234 7.67339 7.22497 8.35633L7.22498 8.36L7.22497 21.545H16.775V8.34L16.775 8.33633C16.7776 7.65339 16.5647 6.98703 16.1666 6.43214C15.7684 5.87725 15.2054 5.46211 14.5576 5.24585L14.8533 4.36Z" fill="black"/>
<path fill-rule="evenodd" clip-rule="evenodd" d="M16.77 2.455H7.22997V0.544998H16.77V2.455Z" fill="black"/>
</svg>
