<svg width="116" height="114" viewBox="0 0 116 114" fill="none" xmlns="http://www.w3.org/2000/svg">
<g filter="url(#filter0_d)">
<rect x="18" y="62" width="80" height="28" rx="6" fill="#00C48C"/>
<path d="M38.424 71.732C38.984 71.732 39.4927 71.83 39.95 72.026C40.4167 72.2127 40.8133 72.502 41.14 72.894C41.8493 73.7247 42.204 74.9147 42.204 76.464C42.204 78.0133 41.8493 79.2033 41.14 80.034C40.4867 80.8087 39.586 81.196 38.438 81.196C37.2807 81.196 36.3707 80.8087 35.708 80.034C35.008 79.222 34.658 78.032 34.658 76.464C34.658 74.896 35.008 73.706 35.708 72.894C36.3707 72.1193 37.276 71.732 38.424 71.732ZM40.496 76.464C40.496 75.4187 40.314 74.6207 39.95 74.07C39.5953 73.51 39.0867 73.23 38.424 73.23C37.7707 73.23 37.262 73.51 36.898 74.07C36.5433 74.6207 36.366 75.4187 36.366 76.464C36.366 77.5093 36.5433 78.3073 36.898 78.858C37.262 79.3993 37.7707 79.67 38.424 79.67C39.0867 79.67 39.5953 79.3993 39.95 78.858C40.314 78.3073 40.496 77.5093 40.496 76.464ZM45.6314 71.732C45.8834 71.732 46.126 71.7787 46.3594 71.872C46.5927 71.956 46.798 72.0867 46.9754 72.264C47.358 72.628 47.5494 73.1553 47.5494 73.846C47.5494 74.5273 47.358 75.0593 46.9754 75.442C46.6207 75.7967 46.168 75.974 45.6174 75.974C45.0854 75.974 44.642 75.7967 44.2874 75.442C43.9047 75.0593 43.7134 74.5273 43.7134 73.846C43.7134 73.1553 43.9047 72.628 44.2874 72.264C44.6514 71.9093 45.0994 71.732 45.6314 71.732ZM46.3034 73.846C46.3034 73.1367 46.0747 72.782 45.6174 72.782C45.1694 72.782 44.9454 73.1367 44.9454 73.846C44.9454 74.5647 45.1694 74.924 45.6174 74.924C46.0747 74.924 46.3034 74.5647 46.3034 73.846ZM50.5034 71.914H52.1694L46.0234 81H44.3434L50.5034 71.914ZM50.8814 76.94C51.4134 76.94 51.8614 77.1173 52.2254 77.472C52.608 77.836 52.7994 78.3633 52.7994 79.054C52.7994 79.7447 52.608 80.2813 52.2254 80.664C51.8707 81.0187 51.4227 81.196 50.8814 81.196C50.34 81.196 49.892 81.0187 49.5374 80.664C49.1547 80.2813 48.9634 79.7447 48.9634 79.054C48.9634 78.3633 49.1547 77.836 49.5374 77.472C49.9014 77.1173 50.3494 76.94 50.8814 76.94ZM50.8814 77.99C50.4334 77.99 50.2094 78.3493 50.2094 79.068C50.2094 79.7773 50.4334 80.132 50.8814 80.132C51.0774 80.132 51.2407 80.0527 51.3714 79.894C51.502 79.726 51.5674 79.4507 51.5674 79.068C51.5674 78.676 51.502 78.4007 51.3714 78.242C51.2407 78.074 51.0774 77.99 50.8814 77.99ZM58.4075 71.914H64.1335V73.342H60.0595V75.736H63.7835V77.15H60.0595V81H58.4075V71.914ZM70.2439 79.768C69.8146 80.6733 69.1239 81.126 68.1719 81.126C66.9679 81.126 66.1746 80.6547 65.7919 79.712C65.6519 79.3853 65.5819 78.9887 65.5819 78.522V74.182H67.2339V78.354C67.2339 78.802 67.3413 79.138 67.5559 79.362C67.7706 79.5767 68.0319 79.684 68.3399 79.684C68.6573 79.684 68.9233 79.642 69.1379 79.558C69.3526 79.4647 69.5393 79.3293 69.6979 79.152C70.0433 78.7507 70.2253 78.214 70.2439 77.542V74.182H71.8959V81H70.2439V79.768ZM74.4993 71.396H76.1513V81H74.4993V71.396ZM78.7512 71.396H80.4032V81H78.7512V71.396Z" fill="white"/>
</g>
<path fill-rule="evenodd" clip-rule="evenodd" d="M35.2179 9.87706C34 12.8174 34 16.5449 34 24C34 31.4551 34 35.1826 35.2179 38.1229C36.8418 42.0434 39.9566 45.1582 43.8771 46.7821C45.8892 47.6155 48.27 47.8786 51.9617 47.9617L57.2929 53.2929C57.6834 53.6834 58.3166 53.6834 58.7071 53.2929L64.0383 47.9617C67.73 47.8786 70.1108 47.6155 72.1229 46.7821C76.0434 45.1582 79.1582 42.0434 80.7821 38.1229C82 35.1826 82 31.4551 82 24C82 16.5449 82 12.8174 80.7821 9.87706C79.1582 5.95662 76.0434 2.84183 72.1229 1.21793C69.1826 0 65.4551 0 58 0C50.5449 0 46.8174 0 43.8771 1.21793C39.9566 2.84183 36.8418 5.95662 35.2179 9.87706Z" fill="#00C48C"/>
<path d="M56.6354 26.6936L56.3094 27.1791H57.1997V28.7708H53.3234L55.314 25.8063L56.6354 26.6936Z" fill="white"/>
<path d="M59.6903 27.1791L59.3643 26.6936L60.6856 25.8063L62.6763 28.7708H58.7999V27.1791H59.6903Z" fill="white"/>
<path d="M58.0001 21.7605L56.1869 24.4934L57.5132 25.3733L58.0001 24.6395L58.4869 25.3733L59.8132 24.4934L58.0001 21.7605Z" fill="white"/>
<path fill-rule="evenodd" clip-rule="evenodd" d="M56.8581 14.4542H59.147C59.6884 14.458 60.2126 14.6451 60.6341 14.985C61.0524 15.3223 61.345 15.7903 61.4652 16.3137L61.8018 17.6375H65.9585V19.2291H65.1628V30.3666C65.1628 31.2098 64.8278 32.0184 64.2316 32.6146C63.6354 33.2108 62.8268 33.5458 61.9836 33.5458H54.0253C53.1821 33.5458 52.3735 33.2108 51.7773 32.6146C51.1811 32.0184 50.8461 31.2098 50.8461 30.3666V19.2291H50.0418V17.6375H54.1976L54.5343 16.3137C54.6545 15.7903 54.9471 15.3223 55.3653 14.985C55.7868 14.6451 56.311 14.458 56.8525 14.4542L56.8581 14.4542ZM52.4378 19.2291V30.3666C52.4378 30.7877 52.605 31.1914 52.9027 31.4892C53.2005 31.7869 53.6042 31.9541 54.0253 31.9541H61.9836C62.4046 31.9541 62.8084 31.7869 63.1061 31.4892C63.4039 31.1914 63.5711 30.7877 63.5711 30.3666V19.2291H52.4378ZM60.1595 17.6375H55.84L56.0821 16.6851L56.0846 16.6741C56.1244 16.4967 56.223 16.3381 56.3645 16.224C56.5054 16.1104 56.6804 16.0476 56.8613 16.0458H59.1381C59.319 16.0476 59.4941 16.1104 59.6349 16.224C59.7764 16.3381 59.8751 16.4967 59.9148 16.6741L59.9173 16.6851L60.1595 17.6375Z" fill="white"/>
<defs>
<filter id="filter0_d" x="2" y="54" width="112" height="60" filterUnits="userSpaceOnUse" color-interpolation-filters="sRGB">
<feFlood flood-opacity="0" result="BackgroundImageFix"/>
<feColorMatrix in="SourceAlpha" type="matrix" values="0 0 0 0 0 0 0 0 0 0 0 0 0 0 0 0 0 0 127 0" result="hardAlpha"/>
<feOffset dy="8"/>
<feGaussianBlur stdDeviation="8"/>
<feColorMatrix type="matrix" values="0 0 0 0 0 0 0 0 0 0 0 0 0 0 0 0 0 0 0.04 0"/>
<feBlend mode="normal" in2="BackgroundImageFix" result="effect1_dropShadow"/>
<feBlend mode="normal" in="SourceGraphic" in2="effect1_dropShadow" result="shape"/>
</filter>
</defs>
</svg>
