<svg width="20" height="20" viewBox="0 0 20 20" fill="none" xmlns="http://www.w3.org/2000/svg">
<path d="M8.63548 12.6936L8.30946 13.1791H9.19978V14.7708H5.32344L7.31408 11.8063L8.63548 12.6936Z" fill="white"/>
<path d="M11.6903 13.1791L11.3643 12.6936L12.6857 11.8063L14.6764 14.7708H10.8V13.1791H11.6903Z" fill="white"/>
<path d="M10.0001 7.76052L8.18699 10.4934L9.51329 11.3733L10.0001 10.6395L10.487 11.3733L11.8133 10.4934L10.0001 7.76052Z" fill="white"/>
<path fill-rule="evenodd" clip-rule="evenodd" d="M8.85811 0.454163H11.147C11.6885 0.457973 12.2127 0.645102 12.6342 0.985008C13.0524 1.3223 13.345 1.79031 13.4652 2.31374L13.8019 3.63745H17.9585V5.22912H17.1628V16.3666C17.1628 17.2098 16.8279 18.0184 16.2317 18.6146C15.6355 19.2108 14.8268 19.5458 13.9837 19.5458H6.02533C5.18217 19.5458 4.37353 19.2108 3.77732 18.6146C3.18111 18.0184 2.84617 17.2098 2.84617 16.3666V5.22912H2.04187V3.63745H6.19768L6.53431 2.31375C6.65451 1.79031 6.94714 1.3223 7.36538 0.985008C7.78687 0.645102 8.31106 0.457992 8.85251 0.454182L8.85811 0.454163ZM4.43783 5.22912V16.3666C4.43783 16.7877 4.60509 17.1914 4.9028 17.4892C5.20052 17.7869 5.6043 17.9541 6.02533 17.9541H13.9837C14.4047 17.9541 14.8085 17.7869 15.1062 17.4892C15.4039 17.1914 15.5712 16.7877 15.5712 16.3666V5.22912H4.43783ZM12.1595 3.63745H7.84001L8.08219 2.68514L8.08468 2.67406C8.12443 2.49672 8.22308 2.33807 8.36455 2.22398C8.50542 2.11038 8.68047 2.04763 8.86139 2.04583H11.1382C11.3191 2.04763 11.4941 2.11038 11.635 2.22398C11.7765 2.33807 11.8751 2.49672 11.9149 2.67406L11.9174 2.68514L12.1595 3.63745Z" fill="white"/>
</svg>
