<svg width="48" height="48" viewBox="0 0 48 48" fill="none" xmlns="http://www.w3.org/2000/svg">
<path d="M24 0C10.7452 0 0 10.7452 0 24C0 37.2548 10.7452 48 24 48C37.2548 48 48 37.2548 48 24C47.9851 10.7514 37.2486 0.0149514 24 0ZM35.2028 33.0543C34.9095 33.3736 34.4492 33.4783 34.0466 33.3172L24 29.2977L13.9534 33.3172C13.5509 33.479 13.0903 33.375 12.7965 33.0559C12.5026 32.7368 12.4369 32.2692 12.6313 31.8814L23.0661 11.0118C23.2622 10.6828 23.617 10.4813 24 10.4813C24.383 10.4813 24.7378 10.6828 24.9339 11.0118L35.3687 31.8814C35.5622 32.2689 35.4961 32.7356 35.2028 33.0543Z" fill="#191516"/>
</svg>
