<svg width="12" height="10" viewBox="0 0 12 10" fill="none" xmlns="http://www.w3.org/2000/svg">
<path d="M5.59382 4.84839C4.41966 4.64368 3.23035 4.69675 2.05619 4.5906C1.95771 4.58302 1.85924 4.56028 1.76076 4.53753C1.69258 4.52237 1.685 4.47688 1.73803 4.43138C1.79106 4.38589 1.85166 4.3404 1.91984 4.30249C3.29095 3.44574 4.40451 2.33878 5.26808 0.974035C5.44231 0.693504 5.49534 0.678339 5.82865 0.792067C6.85887 1.14084 7.82093 1.62608 8.69965 2.2857C9.5708 2.94533 10.3056 3.73385 10.9268 4.6361C11.0631 4.83323 11.0555 4.98487 10.9268 5.182C9.88139 6.78936 8.48755 7.9873 6.74525 8.7834C6.35891 8.95779 5.94985 9.09426 5.54837 9.23832C5.33626 9.31414 5.1696 9.26864 5.03325 9.06393C4.69994 8.55594 4.32118 8.08587 3.90454 7.64612C3.13187 6.83485 2.24557 6.17522 1.26079 5.64449C1.10929 5.56109 0.93506 5.5156 0.798706 5.31089C1.23807 5.3033 1.6547 5.3033 2.07134 5.28056C3.10157 5.22749 4.1318 5.16683 5.16203 5.10618C5.31353 5.09859 5.45746 5.03794 5.60139 5.00761C5.75289 4.86355 5.92712 4.92421 6.09378 4.94696C5.94227 4.86355 5.7529 4.9697 5.59382 4.84839Z" fill="white"/>
</svg>
