<svg width="24" height="24" viewBox="0 0 24 24" fill="none" xmlns="http://www.w3.org/2000/svg">
<path fill-rule="evenodd" clip-rule="evenodd" d="M8.18495 0.544998H15.8149V8.82916L22.862 18.5079C23.2499 19.0406 23.4576 19.6833 23.4549 20.3423L23.4549 20.3446L22.4999 20.34H23.4549L23.4549 20.3423C23.4543 21.1676 23.1262 21.959 22.5426 22.5426C21.9584 23.1268 21.1661 23.455 20.3399 23.455H3.65995C2.8338 23.455 2.04149 23.1268 1.45731 22.5426C0.873677 21.959 0.545558 21.1676 0.544948 20.3423L0.544958 20.3446L1.49995 20.34H2.45495C2.45495 20.6596 2.5819 20.9661 2.80788 21.1921C3.03386 21.418 3.34036 21.545 3.65995 21.545H20.3399C20.6595 21.545 20.966 21.418 21.192 21.1921C21.418 20.9661 21.5449 20.6596 21.5449 20.34L21.545 20.3354C21.5462 20.0828 21.4666 19.8364 21.3179 19.6321L13.9049 9.45083V2.455H14.8599V1.5H13.9049V2.455H10.0949V1.5H9.13995V2.455H10.0949V9.45083L2.68199 19.6321C2.53328 19.8363 2.45372 20.0828 2.45494 20.3354L1.49995 20.34H0.544947L0.544948 20.3423C0.542258 19.6833 0.749981 19.0406 1.13791 18.5079L8.18495 8.82916V0.544998Z" fill="black"/>
<path fill-rule="evenodd" clip-rule="evenodd" d="M16.7699 2.455H7.22995V0.544998H16.7699V2.455Z" fill="black"/>
</svg>
