<svg width="24" height="24" viewBox="0 0 24 24" fill="none" xmlns="http://www.w3.org/2000/svg">
<path fill-rule="evenodd" clip-rule="evenodd" d="M12 10.865C9.09164 10.865 6.86501 13.0095 6.86501 15.5C6.86501 17.9905 9.09164 20.135 12 20.135C14.9084 20.135 17.135 17.9905 17.135 15.5C17.135 13.0095 14.9084 10.865 12 10.865ZM5.13501 15.5C5.13501 11.9154 8.28096 9.135 12 9.135C15.7191 9.135 18.865 11.9154 18.865 15.5C18.865 19.0846 15.7191 21.865 12 21.865C8.28096 21.865 5.13501 19.0846 5.13501 15.5Z" fill="black"/>
<path fill-rule="evenodd" clip-rule="evenodd" d="M6.97496 3.365C7.12638 3.95069 7.43034 4.49159 7.86278 4.92908C8.50098 5.57476 9.36764 5.94326 10.2753 5.955H11.025C10.9848 5.79958 10.9337 5.6468 10.872 5.49783C10.6984 5.07865 10.4439 4.69777 10.1231 4.37695C9.80224 4.05612 9.42136 3.80163 9.00218 3.628C8.583 3.45437 8.13373 3.365 7.68001 3.365H6.97496ZM12 6.82H12.865C12.865 6.1391 12.7309 5.46486 12.4703 4.83579C12.2098 4.20672 11.8278 3.63513 11.3464 3.15365C10.8649 2.67218 10.2933 2.29026 9.66422 2.02969C9.03515 1.76912 8.36091 1.635 7.68001 1.635H6.00001V2.5L5.13501 2.49994C5.13492 3.86476 5.67295 5.17457 6.63238 6.14524C7.59182 7.11591 8.89528 7.66915 10.26 7.68494L12 7.685V6.82Z" fill="black"/>
<path fill-rule="evenodd" clip-rule="evenodd" d="M13.73 5.955C14.6463 5.955 15.5251 5.59099 16.1731 4.94306C16.6129 4.50325 16.9219 3.95708 17.075 3.365H16.37C15.4537 3.365 14.5749 3.72901 13.927 4.37695C13.4871 4.81676 13.1782 5.36293 13.025 5.955H13.73ZM17.3964 6.16635C16.424 7.13873 15.1052 7.685 13.73 7.685H11.185L11.185 6.82C11.185 5.44485 11.7313 4.12603 12.7037 3.15365C13.676 2.18128 14.9949 1.635 16.37 1.635H18.915V2.5C18.915 3.87515 18.3687 5.19398 17.3964 6.16635Z" fill="black"/>
<path fill-rule="evenodd" clip-rule="evenodd" d="M12.865 7V10H11.135V7H12.865Z" fill="black"/>
</svg>
