<svg width="24" height="24" viewBox="0 0 24 24" fill="none" xmlns="http://www.w3.org/2000/svg">
<path d="M19.66 18.68V22.5" stroke="black" stroke-width="1.91" stroke-miterlimit="10"/>
<path fill-rule="evenodd" clip-rule="evenodd" d="M5.33998 17.725H21.57V19.635H5.34288C5.08943 19.6369 4.84685 19.7384 4.66759 19.9176C4.48843 20.0968 4.38695 20.3392 4.38498 20.5925C4.38563 20.8449 4.48618 21.0868 4.66469 21.2653C4.84379 21.4444 5.08669 21.545 5.33998 21.545H21.57V23.455H5.33998C4.58013 23.455 3.85141 23.1532 3.31411 22.6159C2.77682 22.0786 2.47498 21.3498 2.47498 20.59H3.42998L2.47499 20.585C2.47892 19.8277 2.78151 19.1025 3.31702 18.567C3.85253 18.0315 4.5777 17.7289 5.33501 17.725L5.33998 17.725Z" fill="black"/>
<path fill-rule="evenodd" clip-rule="evenodd" d="M5.33998 2.455C5.08669 2.455 4.84379 2.55561 4.66469 2.73471C4.48559 2.91381 4.38498 3.15672 4.38498 3.41V20.59C4.38498 20.8433 4.48559 21.0862 4.66469 21.2653C4.84379 21.4444 5.08669 21.545 5.33998 21.545H18.705V17.725H19.655V2.455H5.33998ZM20.615 19.635H21.565V0.544998H5.33998C4.58013 0.544998 3.85141 0.846846 3.31411 1.38414C2.77682 1.92143 2.47498 2.65015 2.47498 3.41V20.59C2.47498 21.3498 2.77682 22.0786 3.31411 22.6159C3.85141 23.1532 4.58013 23.455 5.33998 23.455H20.615V19.635Z" fill="black"/>
</svg>
